G04 #@! TF.GenerationSoftware,KiCad,Pcbnew,(5.1.10)-1*
G04 #@! TF.CreationDate,2021-12-18T23:32:26-05:00*
G04 #@! TF.ProjectId,PCBWrench_panelized,50434257-7265-46e6-9368-5f70616e656c,rev?*
G04 #@! TF.SameCoordinates,Original*
G04 #@! TF.FileFunction,Profile,NP*
%FSLAX46Y46*%
G04 Gerber Fmt 4.6, Leading zero omitted, Abs format (unit mm)*
G04 Created by KiCad (PCBNEW (5.1.10)-1) date 2021-12-18 23:32:26*
%MOMM*%
%LPD*%
G01*
G04 APERTURE LIST*
G04 #@! TA.AperFunction,Profile*
%ADD10C,0.050000*%
G04 #@! TD*
G04 APERTURE END LIST*
D10*
X99000000Y-177000000D02*
X99000000Y-187000000D01*
X99000000Y-161000000D02*
X99000000Y-171000000D01*
X99000000Y-145000000D02*
X99000000Y-155000000D01*
X99000000Y-129000000D02*
X99000000Y-139000000D01*
X99000000Y-113000000D02*
X99000000Y-123000000D01*
X99000000Y-97000000D02*
X99000000Y-107000000D01*
X81250000Y-187000000D02*
X88750000Y-187000000D01*
X59500000Y-190000000D02*
X72500000Y-190000000D01*
X15250000Y-187000000D02*
X22750000Y-187000000D01*
X0Y-190000000D02*
X6500000Y-190000000D01*
X59500000Y-94000000D02*
X72500000Y-94000000D01*
X15250000Y-97000000D02*
X22750000Y-97000000D01*
X0Y-94000000D02*
X6500000Y-94000000D01*
X22750000Y-175000000D02*
X22750000Y-174000000D01*
X22750000Y-159000000D02*
X22750000Y-158000000D01*
X22750000Y-143000000D02*
X22750000Y-142000000D01*
X22750000Y-127000000D02*
X22750000Y-126000000D01*
X22750000Y-111000000D02*
X22750000Y-110000000D01*
X15250000Y-175000000D02*
X15250000Y-174000000D01*
X15250000Y-159000000D02*
X15250000Y-158000000D01*
X15250000Y-143000000D02*
X15250000Y-142000000D01*
X15250000Y-127000000D02*
X15250000Y-126000000D01*
X15250000Y-111000000D02*
X15250000Y-110000000D01*
X15250000Y-175000000D02*
G75*
G02*
X15250000Y-177000000I0J-1000000D01*
G01*
X15250000Y-159000000D02*
G75*
G02*
X15250000Y-161000000I0J-1000000D01*
G01*
X15250000Y-143000000D02*
G75*
G02*
X15250000Y-145000000I0J-1000000D01*
G01*
X15250000Y-127000000D02*
G75*
G02*
X15250000Y-129000000I0J-1000000D01*
G01*
X15250000Y-111000000D02*
G75*
G02*
X15250000Y-113000000I0J-1000000D01*
G01*
X27000000Y-177000000D02*
X22750000Y-177000000D01*
X27000000Y-161000000D02*
X22750000Y-161000000D01*
X27000000Y-145000000D02*
X22750000Y-145000000D01*
X27000000Y-129000000D02*
X22750000Y-129000000D01*
X27000000Y-113000000D02*
X22750000Y-113000000D01*
X15250000Y-173000000D02*
X15250000Y-174000000D01*
X15250000Y-157000000D02*
X15250000Y-158000000D01*
X15250000Y-141000000D02*
X15250000Y-142000000D01*
X15250000Y-125000000D02*
X15250000Y-126000000D01*
X22750000Y-173000000D02*
X22750000Y-174000000D01*
X22750000Y-157000000D02*
X22750000Y-158000000D01*
X22750000Y-141000000D02*
X22750000Y-142000000D01*
X22750000Y-125000000D02*
X22750000Y-126000000D01*
X22750000Y-177000000D02*
G75*
G02*
X22750000Y-175000000I0J1000000D01*
G01*
X22750000Y-161000000D02*
G75*
G02*
X22750000Y-159000000I0J1000000D01*
G01*
X22750000Y-145000000D02*
G75*
G02*
X22750000Y-143000000I0J1000000D01*
G01*
X22750000Y-129000000D02*
G75*
G02*
X22750000Y-127000000I0J1000000D01*
G01*
X22750000Y-113000000D02*
G75*
G02*
X22750000Y-111000000I0J1000000D01*
G01*
X15250000Y-177000000D02*
X11000000Y-177000000D01*
X15250000Y-161000000D02*
X11000000Y-161000000D01*
X15250000Y-145000000D02*
X11000000Y-145000000D01*
X15250000Y-129000000D02*
X11000000Y-129000000D01*
X15250000Y-113000000D02*
X11000000Y-113000000D01*
X61500000Y-184820000D02*
X66000000Y-184820000D01*
X61500000Y-168820000D02*
X66000000Y-168820000D01*
X61500000Y-152820000D02*
X66000000Y-152820000D01*
X61500000Y-136820000D02*
X66000000Y-136820000D01*
X61500000Y-120820000D02*
X66000000Y-120820000D01*
X6792893Y-174707107D02*
X8542893Y-176707107D01*
X6792893Y-158707107D02*
X8542893Y-160707107D01*
X6792893Y-142707107D02*
X8542893Y-144707107D01*
X6792893Y-126707107D02*
X8542893Y-128707107D01*
X6792893Y-110707107D02*
X8542893Y-112707107D01*
X71366025Y-179680000D02*
G75*
G03*
X70500000Y-179180000I-866025J-500000D01*
G01*
X71366025Y-163680000D02*
G75*
G03*
X70500000Y-163180000I-866025J-500000D01*
G01*
X71366025Y-147680000D02*
G75*
G03*
X70500000Y-147180000I-866025J-500000D01*
G01*
X71366025Y-131680000D02*
G75*
G03*
X70500000Y-131180000I-866025J-500000D01*
G01*
X71366025Y-115680000D02*
G75*
G03*
X70500000Y-115180000I-866025J-500000D01*
G01*
X60633975Y-179680000D02*
G75*
G02*
X61500000Y-179180000I866025J-500000D01*
G01*
X60633975Y-163680000D02*
G75*
G02*
X61500000Y-163180000I866025J-500000D01*
G01*
X60633975Y-147680000D02*
G75*
G02*
X61500000Y-147180000I866025J-500000D01*
G01*
X60633975Y-131680000D02*
G75*
G02*
X61500000Y-131180000I866025J-500000D01*
G01*
X60633975Y-115680000D02*
G75*
G02*
X61500000Y-115180000I866025J-500000D01*
G01*
X71366025Y-184320000D02*
X72610000Y-182466988D01*
X71366025Y-168320000D02*
X72610000Y-166466988D01*
X71366025Y-152320000D02*
X72610000Y-150466988D01*
X71366025Y-136320000D02*
X72610000Y-134466988D01*
X71366025Y-120320000D02*
X72610000Y-118466988D01*
X70500000Y-179180000D02*
X66000000Y-179180000D01*
X70500000Y-163180000D02*
X66000000Y-163180000D01*
X70500000Y-147180000D02*
X66000000Y-147180000D01*
X70500000Y-131180000D02*
X66000000Y-131180000D01*
X70500000Y-115180000D02*
X66000000Y-115180000D01*
X72610000Y-181533012D02*
G75*
G02*
X72735129Y-182000000I-808846J-466988D01*
G01*
X72610000Y-165533012D02*
G75*
G02*
X72735129Y-166000000I-808846J-466988D01*
G01*
X72610000Y-149533012D02*
G75*
G02*
X72735129Y-150000000I-808846J-466988D01*
G01*
X72610000Y-133533012D02*
G75*
G02*
X72735129Y-134000000I-808846J-466988D01*
G01*
X72610000Y-117533012D02*
G75*
G02*
X72735129Y-118000000I-808846J-466988D01*
G01*
X43250000Y-175000000D02*
X43250000Y-174000000D01*
X43250000Y-159000000D02*
X43250000Y-158000000D01*
X43250000Y-143000000D02*
X43250000Y-142000000D01*
X43250000Y-127000000D02*
X43250000Y-126000000D01*
X43250000Y-111000000D02*
X43250000Y-110000000D01*
X60633975Y-179680000D02*
X59390000Y-181533012D01*
X60633975Y-163680000D02*
X59390000Y-165533012D01*
X60633975Y-147680000D02*
X59390000Y-149533012D01*
X60633975Y-131680000D02*
X59390000Y-133533012D01*
X60633975Y-115680000D02*
X59390000Y-117533012D01*
X43250000Y-173000000D02*
X43250000Y-174000000D01*
X43250000Y-157000000D02*
X43250000Y-158000000D01*
X43250000Y-141000000D02*
X43250000Y-142000000D01*
X43250000Y-125000000D02*
X43250000Y-126000000D01*
X50750000Y-173000000D02*
G75*
G02*
X50750000Y-171000000I0J1000000D01*
G01*
X50750000Y-157000000D02*
G75*
G02*
X50750000Y-155000000I0J1000000D01*
G01*
X50750000Y-141000000D02*
G75*
G02*
X50750000Y-139000000I0J1000000D01*
G01*
X50750000Y-125000000D02*
G75*
G02*
X50750000Y-123000000I0J1000000D01*
G01*
X50750000Y-187000000D02*
X55000000Y-187000000D01*
X50750000Y-171000000D02*
X55000000Y-171000000D01*
X50750000Y-155000000D02*
X55000000Y-155000000D01*
X50750000Y-139000000D02*
X55000000Y-139000000D01*
X50750000Y-123000000D02*
X55000000Y-123000000D01*
X59207107Y-189292893D02*
X57457107Y-187292893D01*
X59207107Y-173292893D02*
X57457107Y-171292893D01*
X59207107Y-157292893D02*
X57457107Y-155292893D01*
X59207107Y-141292893D02*
X57457107Y-139292893D01*
X59207107Y-125292893D02*
X57457107Y-123292893D01*
X59207107Y-189292893D02*
G75*
G02*
X59500000Y-190000000I-707107J-707107D01*
G01*
X59207107Y-173292893D02*
G75*
G02*
X59500000Y-174000000I-707107J-707107D01*
G01*
X59207107Y-157292893D02*
G75*
G02*
X59500000Y-158000000I-707107J-707107D01*
G01*
X59207107Y-141292893D02*
G75*
G02*
X59500000Y-142000000I-707107J-707107D01*
G01*
X59207107Y-125292893D02*
G75*
G02*
X59500000Y-126000000I-707107J-707107D01*
G01*
X33000000Y-177000000D02*
X37000000Y-177000000D01*
X33000000Y-161000000D02*
X37000000Y-161000000D01*
X33000000Y-145000000D02*
X37000000Y-145000000D01*
X33000000Y-129000000D02*
X37000000Y-129000000D01*
X33000000Y-113000000D02*
X37000000Y-113000000D01*
X61500000Y-179180000D02*
X66000000Y-179180000D01*
X61500000Y-163180000D02*
X66000000Y-163180000D01*
X61500000Y-147180000D02*
X66000000Y-147180000D01*
X61500000Y-131180000D02*
X66000000Y-131180000D01*
X61500000Y-115180000D02*
X66000000Y-115180000D01*
X56750000Y-187000000D02*
X55000000Y-187000000D01*
X56750000Y-171000000D02*
X55000000Y-171000000D01*
X56750000Y-155000000D02*
X55000000Y-155000000D01*
X56750000Y-139000000D02*
X55000000Y-139000000D01*
X56750000Y-123000000D02*
X55000000Y-123000000D01*
X59390000Y-182466988D02*
G75*
G02*
X59264871Y-182000000I808846J466988D01*
G01*
X59390000Y-166466988D02*
G75*
G02*
X59264871Y-166000000I808846J466988D01*
G01*
X59390000Y-150466988D02*
G75*
G02*
X59264871Y-150000000I808846J466988D01*
G01*
X59390000Y-134466988D02*
G75*
G02*
X59264871Y-134000000I808846J466988D01*
G01*
X59390000Y-118466988D02*
G75*
G02*
X59264871Y-118000000I808846J466988D01*
G01*
X39000000Y-187000000D02*
X37000000Y-187000000D01*
X39000000Y-171000000D02*
X37000000Y-171000000D01*
X39000000Y-155000000D02*
X37000000Y-155000000D01*
X39000000Y-139000000D02*
X37000000Y-139000000D01*
X39000000Y-123000000D02*
X37000000Y-123000000D01*
X9250000Y-187000000D02*
X11000000Y-187000000D01*
X9250000Y-171000000D02*
X11000000Y-171000000D01*
X9250000Y-155000000D02*
X11000000Y-155000000D01*
X9250000Y-139000000D02*
X11000000Y-139000000D01*
X9250000Y-123000000D02*
X11000000Y-123000000D01*
X59207107Y-174707107D02*
G75*
G03*
X59500000Y-174000000I-707107J707107D01*
G01*
X59207107Y-158707107D02*
G75*
G03*
X59500000Y-158000000I-707107J707107D01*
G01*
X59207107Y-142707107D02*
G75*
G03*
X59500000Y-142000000I-707107J707107D01*
G01*
X59207107Y-126707107D02*
G75*
G03*
X59500000Y-126000000I-707107J707107D01*
G01*
X59207107Y-110707107D02*
G75*
G03*
X59500000Y-110000000I-707107J707107D01*
G01*
X37000000Y-177000000D02*
X39000000Y-177000000D01*
X37000000Y-161000000D02*
X39000000Y-161000000D01*
X37000000Y-145000000D02*
X39000000Y-145000000D01*
X37000000Y-129000000D02*
X39000000Y-129000000D01*
X37000000Y-113000000D02*
X39000000Y-113000000D01*
X36000000Y-187000000D02*
X37000000Y-187000000D01*
X36000000Y-171000000D02*
X37000000Y-171000000D01*
X36000000Y-155000000D02*
X37000000Y-155000000D01*
X36000000Y-139000000D02*
X37000000Y-139000000D01*
X36000000Y-123000000D02*
X37000000Y-123000000D01*
X9250000Y-177000000D02*
X11000000Y-177000000D01*
X9250000Y-161000000D02*
X11000000Y-161000000D01*
X9250000Y-145000000D02*
X11000000Y-145000000D01*
X9250000Y-129000000D02*
X11000000Y-129000000D01*
X9250000Y-113000000D02*
X11000000Y-113000000D01*
X57457107Y-176707107D02*
G75*
G02*
X56750000Y-177000000I-707107J707107D01*
G01*
X57457107Y-160707107D02*
G75*
G02*
X56750000Y-161000000I-707107J707107D01*
G01*
X57457107Y-144707107D02*
G75*
G02*
X56750000Y-145000000I-707107J707107D01*
G01*
X57457107Y-128707107D02*
G75*
G02*
X56750000Y-129000000I-707107J707107D01*
G01*
X57457107Y-112707107D02*
G75*
G02*
X56750000Y-113000000I-707107J707107D01*
G01*
X57457107Y-187292893D02*
G75*
G03*
X56750000Y-187000000I-707107J-707107D01*
G01*
X57457107Y-171292893D02*
G75*
G03*
X56750000Y-171000000I-707107J-707107D01*
G01*
X57457107Y-155292893D02*
G75*
G03*
X56750000Y-155000000I-707107J-707107D01*
G01*
X57457107Y-139292893D02*
G75*
G03*
X56750000Y-139000000I-707107J-707107D01*
G01*
X57457107Y-123292893D02*
G75*
G03*
X56750000Y-123000000I-707107J-707107D01*
G01*
X50750000Y-177000000D02*
G75*
G02*
X50750000Y-175000000I0J1000000D01*
G01*
X50750000Y-161000000D02*
G75*
G02*
X50750000Y-159000000I0J1000000D01*
G01*
X50750000Y-145000000D02*
G75*
G02*
X50750000Y-143000000I0J1000000D01*
G01*
X50750000Y-129000000D02*
G75*
G02*
X50750000Y-127000000I0J1000000D01*
G01*
X50750000Y-113000000D02*
G75*
G02*
X50750000Y-111000000I0J1000000D01*
G01*
X43250000Y-175000000D02*
G75*
G02*
X43250000Y-177000000I0J-1000000D01*
G01*
X43250000Y-159000000D02*
G75*
G02*
X43250000Y-161000000I0J-1000000D01*
G01*
X43250000Y-143000000D02*
G75*
G02*
X43250000Y-145000000I0J-1000000D01*
G01*
X43250000Y-127000000D02*
G75*
G02*
X43250000Y-129000000I0J-1000000D01*
G01*
X43250000Y-111000000D02*
G75*
G02*
X43250000Y-113000000I0J-1000000D01*
G01*
X50750000Y-173000000D02*
X50750000Y-174000000D01*
X50750000Y-157000000D02*
X50750000Y-158000000D01*
X50750000Y-141000000D02*
X50750000Y-142000000D01*
X50750000Y-125000000D02*
X50750000Y-126000000D01*
X43250000Y-177000000D02*
X39000000Y-177000000D01*
X43250000Y-161000000D02*
X39000000Y-161000000D01*
X43250000Y-145000000D02*
X39000000Y-145000000D01*
X43250000Y-129000000D02*
X39000000Y-129000000D01*
X43250000Y-113000000D02*
X39000000Y-113000000D01*
X60633975Y-184320000D02*
G75*
G03*
X61500000Y-184820000I866025J500000D01*
G01*
X60633975Y-168320000D02*
G75*
G03*
X61500000Y-168820000I866025J500000D01*
G01*
X60633975Y-152320000D02*
G75*
G03*
X61500000Y-152820000I866025J500000D01*
G01*
X60633975Y-136320000D02*
G75*
G03*
X61500000Y-136820000I866025J500000D01*
G01*
X60633975Y-120320000D02*
G75*
G03*
X61500000Y-120820000I866025J500000D01*
G01*
X43250000Y-171000000D02*
G75*
G02*
X43250000Y-173000000I0J-1000000D01*
G01*
X43250000Y-155000000D02*
G75*
G02*
X43250000Y-157000000I0J-1000000D01*
G01*
X43250000Y-139000000D02*
G75*
G02*
X43250000Y-141000000I0J-1000000D01*
G01*
X43250000Y-123000000D02*
G75*
G02*
X43250000Y-125000000I0J-1000000D01*
G01*
X57457107Y-176707107D02*
X59207107Y-174707107D01*
X57457107Y-160707107D02*
X59207107Y-158707107D01*
X57457107Y-144707107D02*
X59207107Y-142707107D01*
X57457107Y-128707107D02*
X59207107Y-126707107D01*
X57457107Y-112707107D02*
X59207107Y-110707107D01*
X59390000Y-181533012D02*
G75*
G03*
X59264871Y-182000000I808846J-466988D01*
G01*
X59390000Y-165533012D02*
G75*
G03*
X59264871Y-166000000I808846J-466988D01*
G01*
X59390000Y-149533012D02*
G75*
G03*
X59264871Y-150000000I808846J-466988D01*
G01*
X59390000Y-133533012D02*
G75*
G03*
X59264871Y-134000000I808846J-466988D01*
G01*
X59390000Y-117533012D02*
G75*
G03*
X59264871Y-118000000I808846J-466988D01*
G01*
X8542893Y-187292893D02*
X6792893Y-189292893D01*
X8542893Y-171292893D02*
X6792893Y-173292893D01*
X8542893Y-155292893D02*
X6792893Y-157292893D01*
X8542893Y-139292893D02*
X6792893Y-141292893D01*
X8542893Y-123292893D02*
X6792893Y-125292893D01*
X50750000Y-175000000D02*
X50750000Y-174000000D01*
X50750000Y-159000000D02*
X50750000Y-158000000D01*
X50750000Y-143000000D02*
X50750000Y-142000000D01*
X50750000Y-127000000D02*
X50750000Y-126000000D01*
X50750000Y-111000000D02*
X50750000Y-110000000D01*
X74542893Y-187292893D02*
G75*
G02*
X75250000Y-187000000I707107J-707107D01*
G01*
X74542893Y-171292893D02*
G75*
G02*
X75250000Y-171000000I707107J-707107D01*
G01*
X74542893Y-155292893D02*
G75*
G02*
X75250000Y-155000000I707107J-707107D01*
G01*
X74542893Y-139292893D02*
G75*
G02*
X75250000Y-139000000I707107J-707107D01*
G01*
X74542893Y-123292893D02*
G75*
G02*
X75250000Y-123000000I707107J-707107D01*
G01*
X96000000Y-177000000D02*
X95000000Y-177000000D01*
X96000000Y-161000000D02*
X95000000Y-161000000D01*
X96000000Y-145000000D02*
X95000000Y-145000000D01*
X96000000Y-129000000D02*
X95000000Y-129000000D01*
X96000000Y-113000000D02*
X95000000Y-113000000D01*
X99000000Y-187000000D02*
X95000000Y-187000000D01*
X99000000Y-171000000D02*
X95000000Y-171000000D01*
X99000000Y-155000000D02*
X95000000Y-155000000D01*
X99000000Y-139000000D02*
X95000000Y-139000000D01*
X99000000Y-123000000D02*
X95000000Y-123000000D01*
X71366025Y-184320000D02*
G75*
G02*
X70500000Y-184820000I-866025J500000D01*
G01*
X71366025Y-168320000D02*
G75*
G02*
X70500000Y-168820000I-866025J500000D01*
G01*
X71366025Y-152320000D02*
G75*
G02*
X70500000Y-152820000I-866025J500000D01*
G01*
X71366025Y-136320000D02*
G75*
G02*
X70500000Y-136820000I-866025J500000D01*
G01*
X71366025Y-120320000D02*
G75*
G02*
X70500000Y-120820000I-866025J500000D01*
G01*
X36000000Y-187000000D02*
X33000000Y-187000000D01*
X36000000Y-171000000D02*
X33000000Y-171000000D01*
X36000000Y-155000000D02*
X33000000Y-155000000D01*
X36000000Y-139000000D02*
X33000000Y-139000000D01*
X36000000Y-123000000D02*
X33000000Y-123000000D01*
X55000000Y-177000000D02*
X50750000Y-177000000D01*
X55000000Y-161000000D02*
X50750000Y-161000000D01*
X55000000Y-145000000D02*
X50750000Y-145000000D01*
X55000000Y-129000000D02*
X50750000Y-129000000D01*
X55000000Y-113000000D02*
X50750000Y-113000000D01*
X96000000Y-177000000D02*
X99000000Y-177000000D01*
X96000000Y-161000000D02*
X99000000Y-161000000D01*
X96000000Y-145000000D02*
X99000000Y-145000000D01*
X96000000Y-129000000D02*
X99000000Y-129000000D01*
X96000000Y-113000000D02*
X99000000Y-113000000D01*
X60633975Y-184320000D02*
X59390000Y-182466988D01*
X60633975Y-168320000D02*
X59390000Y-166466988D01*
X60633975Y-152320000D02*
X59390000Y-150466988D01*
X60633975Y-136320000D02*
X59390000Y-134466988D01*
X60633975Y-120320000D02*
X59390000Y-118466988D01*
X56750000Y-177000000D02*
X55000000Y-177000000D01*
X56750000Y-161000000D02*
X55000000Y-161000000D01*
X56750000Y-145000000D02*
X55000000Y-145000000D01*
X56750000Y-129000000D02*
X55000000Y-129000000D01*
X56750000Y-113000000D02*
X55000000Y-113000000D01*
X72610000Y-182466988D02*
G75*
G03*
X72735129Y-182000000I-808846J466988D01*
G01*
X72610000Y-166466988D02*
G75*
G03*
X72735129Y-166000000I-808846J466988D01*
G01*
X72610000Y-150466988D02*
G75*
G03*
X72735129Y-150000000I-808846J466988D01*
G01*
X72610000Y-134466988D02*
G75*
G03*
X72735129Y-134000000I-808846J466988D01*
G01*
X72610000Y-118466988D02*
G75*
G03*
X72735129Y-118000000I-808846J466988D01*
G01*
X71366025Y-179680000D02*
X72610000Y-181533012D01*
X71366025Y-163680000D02*
X72610000Y-165533012D01*
X71366025Y-147680000D02*
X72610000Y-149533012D01*
X71366025Y-131680000D02*
X72610000Y-133533012D01*
X71366025Y-115680000D02*
X72610000Y-117533012D01*
X39000000Y-187000000D02*
X50750000Y-187000000D01*
X39000000Y-171000000D02*
X43250000Y-171000000D01*
X39000000Y-155000000D02*
X43250000Y-155000000D01*
X39000000Y-139000000D02*
X43250000Y-139000000D01*
X39000000Y-123000000D02*
X43250000Y-123000000D01*
X27000000Y-177000000D02*
X29000000Y-177000000D01*
X27000000Y-161000000D02*
X29000000Y-161000000D01*
X27000000Y-145000000D02*
X29000000Y-145000000D01*
X27000000Y-129000000D02*
X29000000Y-129000000D01*
X27000000Y-113000000D02*
X29000000Y-113000000D01*
X74542893Y-176707107D02*
G75*
G03*
X75250000Y-177000000I707107J707107D01*
G01*
X74542893Y-160707107D02*
G75*
G03*
X75250000Y-161000000I707107J707107D01*
G01*
X74542893Y-144707107D02*
G75*
G03*
X75250000Y-145000000I707107J707107D01*
G01*
X74542893Y-128707107D02*
G75*
G03*
X75250000Y-129000000I707107J707107D01*
G01*
X74542893Y-112707107D02*
G75*
G03*
X75250000Y-113000000I707107J707107D01*
G01*
X15250000Y-171000000D02*
G75*
G02*
X15250000Y-173000000I0J-1000000D01*
G01*
X15250000Y-155000000D02*
G75*
G02*
X15250000Y-157000000I0J-1000000D01*
G01*
X15250000Y-139000000D02*
G75*
G02*
X15250000Y-141000000I0J-1000000D01*
G01*
X15250000Y-123000000D02*
G75*
G02*
X15250000Y-125000000I0J-1000000D01*
G01*
X22750000Y-173000000D02*
G75*
G02*
X22750000Y-171000000I0J1000000D01*
G01*
X22750000Y-157000000D02*
G75*
G02*
X22750000Y-155000000I0J1000000D01*
G01*
X22750000Y-141000000D02*
G75*
G02*
X22750000Y-139000000I0J1000000D01*
G01*
X22750000Y-125000000D02*
G75*
G02*
X22750000Y-123000000I0J1000000D01*
G01*
X11000000Y-187000000D02*
X15250000Y-187000000D01*
X11000000Y-171000000D02*
X15250000Y-171000000D01*
X11000000Y-155000000D02*
X15250000Y-155000000D01*
X11000000Y-139000000D02*
X15250000Y-139000000D01*
X11000000Y-123000000D02*
X15250000Y-123000000D01*
X22750000Y-187000000D02*
X27000000Y-187000000D01*
X22750000Y-171000000D02*
X27000000Y-171000000D01*
X22750000Y-155000000D02*
X27000000Y-155000000D01*
X22750000Y-139000000D02*
X27000000Y-139000000D01*
X22750000Y-123000000D02*
X27000000Y-123000000D01*
X6792893Y-174707107D02*
G75*
G02*
X6500000Y-174000000I707107J707107D01*
G01*
X6792893Y-158707107D02*
G75*
G02*
X6500000Y-158000000I707107J707107D01*
G01*
X6792893Y-142707107D02*
G75*
G02*
X6500000Y-142000000I707107J707107D01*
G01*
X6792893Y-126707107D02*
G75*
G02*
X6500000Y-126000000I707107J707107D01*
G01*
X6792893Y-110707107D02*
G75*
G02*
X6500000Y-110000000I707107J707107D01*
G01*
X6792893Y-189292893D02*
G75*
G03*
X6500000Y-190000000I707107J-707107D01*
G01*
X6792893Y-173292893D02*
G75*
G03*
X6500000Y-174000000I707107J-707107D01*
G01*
X6792893Y-157292893D02*
G75*
G03*
X6500000Y-158000000I707107J-707107D01*
G01*
X6792893Y-141292893D02*
G75*
G03*
X6500000Y-142000000I707107J-707107D01*
G01*
X6792893Y-125292893D02*
G75*
G03*
X6500000Y-126000000I707107J-707107D01*
G01*
X75250000Y-187000000D02*
X77000000Y-187000000D01*
X75250000Y-171000000D02*
X77000000Y-171000000D01*
X75250000Y-155000000D02*
X77000000Y-155000000D01*
X75250000Y-139000000D02*
X77000000Y-139000000D01*
X75250000Y-123000000D02*
X77000000Y-123000000D01*
X81250000Y-175000000D02*
G75*
G02*
X81250000Y-177000000I0J-1000000D01*
G01*
X81250000Y-159000000D02*
G75*
G02*
X81250000Y-161000000I0J-1000000D01*
G01*
X81250000Y-143000000D02*
G75*
G02*
X81250000Y-145000000I0J-1000000D01*
G01*
X81250000Y-127000000D02*
G75*
G02*
X81250000Y-129000000I0J-1000000D01*
G01*
X81250000Y-111000000D02*
G75*
G02*
X81250000Y-113000000I0J-1000000D01*
G01*
X93000000Y-177000000D02*
X88750000Y-177000000D01*
X93000000Y-161000000D02*
X88750000Y-161000000D01*
X93000000Y-145000000D02*
X88750000Y-145000000D01*
X93000000Y-129000000D02*
X88750000Y-129000000D01*
X93000000Y-113000000D02*
X88750000Y-113000000D01*
X81250000Y-175000000D02*
X81250000Y-174000000D01*
X81250000Y-159000000D02*
X81250000Y-158000000D01*
X81250000Y-143000000D02*
X81250000Y-142000000D01*
X81250000Y-127000000D02*
X81250000Y-126000000D01*
X81250000Y-111000000D02*
X81250000Y-110000000D01*
X81250000Y-171000000D02*
G75*
G02*
X81250000Y-173000000I0J-1000000D01*
G01*
X81250000Y-155000000D02*
G75*
G02*
X81250000Y-157000000I0J-1000000D01*
G01*
X81250000Y-139000000D02*
G75*
G02*
X81250000Y-141000000I0J-1000000D01*
G01*
X81250000Y-123000000D02*
G75*
G02*
X81250000Y-125000000I0J-1000000D01*
G01*
X88750000Y-173000000D02*
X88750000Y-174000000D01*
X88750000Y-157000000D02*
X88750000Y-158000000D01*
X88750000Y-141000000D02*
X88750000Y-142000000D01*
X88750000Y-125000000D02*
X88750000Y-126000000D01*
X72792893Y-189292893D02*
G75*
G03*
X72500000Y-190000000I707107J-707107D01*
G01*
X72792893Y-173292893D02*
G75*
G03*
X72500000Y-174000000I707107J-707107D01*
G01*
X72792893Y-157292893D02*
G75*
G03*
X72500000Y-158000000I707107J-707107D01*
G01*
X72792893Y-141292893D02*
G75*
G03*
X72500000Y-142000000I707107J-707107D01*
G01*
X72792893Y-125292893D02*
G75*
G03*
X72500000Y-126000000I707107J-707107D01*
G01*
X77000000Y-187000000D02*
X81250000Y-187000000D01*
X77000000Y-171000000D02*
X81250000Y-171000000D01*
X77000000Y-155000000D02*
X81250000Y-155000000D01*
X77000000Y-139000000D02*
X81250000Y-139000000D01*
X77000000Y-123000000D02*
X81250000Y-123000000D01*
X81250000Y-173000000D02*
X81250000Y-174000000D01*
X81250000Y-157000000D02*
X81250000Y-158000000D01*
X81250000Y-141000000D02*
X81250000Y-142000000D01*
X81250000Y-125000000D02*
X81250000Y-126000000D01*
X88750000Y-173000000D02*
G75*
G02*
X88750000Y-171000000I0J1000000D01*
G01*
X88750000Y-157000000D02*
G75*
G02*
X88750000Y-155000000I0J1000000D01*
G01*
X88750000Y-141000000D02*
G75*
G02*
X88750000Y-139000000I0J1000000D01*
G01*
X88750000Y-125000000D02*
G75*
G02*
X88750000Y-123000000I0J1000000D01*
G01*
X75250000Y-177000000D02*
X77000000Y-177000000D01*
X75250000Y-161000000D02*
X77000000Y-161000000D01*
X75250000Y-145000000D02*
X77000000Y-145000000D01*
X75250000Y-129000000D02*
X77000000Y-129000000D01*
X75250000Y-113000000D02*
X77000000Y-113000000D01*
X74542893Y-187292893D02*
X72792893Y-189292893D01*
X74542893Y-171292893D02*
X72792893Y-173292893D01*
X74542893Y-155292893D02*
X72792893Y-157292893D01*
X74542893Y-139292893D02*
X72792893Y-141292893D01*
X74542893Y-123292893D02*
X72792893Y-125292893D01*
X88750000Y-187000000D02*
X93000000Y-187000000D01*
X88750000Y-171000000D02*
X93000000Y-171000000D01*
X88750000Y-155000000D02*
X93000000Y-155000000D01*
X88750000Y-139000000D02*
X93000000Y-139000000D01*
X88750000Y-123000000D02*
X93000000Y-123000000D01*
X70500000Y-184820000D02*
X66000000Y-184820000D01*
X70500000Y-168820000D02*
X66000000Y-168820000D01*
X70500000Y-152820000D02*
X66000000Y-152820000D01*
X70500000Y-136820000D02*
X66000000Y-136820000D01*
X70500000Y-120820000D02*
X66000000Y-120820000D01*
X81250000Y-177000000D02*
X77000000Y-177000000D01*
X81250000Y-161000000D02*
X77000000Y-161000000D01*
X81250000Y-145000000D02*
X77000000Y-145000000D01*
X81250000Y-129000000D02*
X77000000Y-129000000D01*
X81250000Y-113000000D02*
X77000000Y-113000000D01*
X72792893Y-174707107D02*
X74542893Y-176707107D01*
X72792893Y-158707107D02*
X74542893Y-160707107D01*
X72792893Y-142707107D02*
X74542893Y-144707107D01*
X72792893Y-126707107D02*
X74542893Y-128707107D01*
X72792893Y-110707107D02*
X74542893Y-112707107D01*
X72792893Y-174707107D02*
G75*
G02*
X72500000Y-174000000I707107J707107D01*
G01*
X72792893Y-158707107D02*
G75*
G02*
X72500000Y-158000000I707107J707107D01*
G01*
X72792893Y-142707107D02*
G75*
G02*
X72500000Y-142000000I707107J707107D01*
G01*
X72792893Y-126707107D02*
G75*
G02*
X72500000Y-126000000I707107J707107D01*
G01*
X72792893Y-110707107D02*
G75*
G02*
X72500000Y-110000000I707107J707107D01*
G01*
X88750000Y-177000000D02*
G75*
G02*
X88750000Y-175000000I0J1000000D01*
G01*
X88750000Y-161000000D02*
G75*
G02*
X88750000Y-159000000I0J1000000D01*
G01*
X88750000Y-145000000D02*
G75*
G02*
X88750000Y-143000000I0J1000000D01*
G01*
X88750000Y-129000000D02*
G75*
G02*
X88750000Y-127000000I0J1000000D01*
G01*
X88750000Y-113000000D02*
G75*
G02*
X88750000Y-111000000I0J1000000D01*
G01*
X88750000Y-175000000D02*
X88750000Y-174000000D01*
X88750000Y-159000000D02*
X88750000Y-158000000D01*
X88750000Y-143000000D02*
X88750000Y-142000000D01*
X88750000Y-127000000D02*
X88750000Y-126000000D01*
X88750000Y-111000000D02*
X88750000Y-110000000D01*
X93000000Y-177000000D02*
X95000000Y-177000000D01*
X93000000Y-161000000D02*
X95000000Y-161000000D01*
X93000000Y-145000000D02*
X95000000Y-145000000D01*
X93000000Y-129000000D02*
X95000000Y-129000000D01*
X93000000Y-113000000D02*
X95000000Y-113000000D01*
X95000000Y-187000000D02*
X93000000Y-187000000D01*
X95000000Y-171000000D02*
X93000000Y-171000000D01*
X95000000Y-155000000D02*
X93000000Y-155000000D01*
X95000000Y-139000000D02*
X93000000Y-139000000D01*
X95000000Y-123000000D02*
X93000000Y-123000000D01*
X29000000Y-187000000D02*
X27000000Y-187000000D01*
X29000000Y-171000000D02*
X27000000Y-171000000D01*
X29000000Y-155000000D02*
X27000000Y-155000000D01*
X29000000Y-139000000D02*
X27000000Y-139000000D01*
X29000000Y-123000000D02*
X27000000Y-123000000D01*
X4500000Y-184820000D02*
X0Y-184820000D01*
X4500000Y-168820000D02*
X0Y-168820000D01*
X4500000Y-152820000D02*
X0Y-152820000D01*
X4500000Y-136820000D02*
X0Y-136820000D01*
X4500000Y-120820000D02*
X0Y-120820000D01*
X0Y-190000000D02*
X0Y-184820000D01*
X0Y-174000000D02*
X0Y-168820000D01*
X0Y-158000000D02*
X0Y-152820000D01*
X0Y-142000000D02*
X0Y-136820000D01*
X0Y-126000000D02*
X0Y-120820000D01*
X8542893Y-187292893D02*
G75*
G02*
X9250000Y-187000000I707107J-707107D01*
G01*
X8542893Y-171292893D02*
G75*
G02*
X9250000Y-171000000I707107J-707107D01*
G01*
X8542893Y-155292893D02*
G75*
G02*
X9250000Y-155000000I707107J-707107D01*
G01*
X8542893Y-139292893D02*
G75*
G02*
X9250000Y-139000000I707107J-707107D01*
G01*
X8542893Y-123292893D02*
G75*
G02*
X9250000Y-123000000I707107J-707107D01*
G01*
X30000000Y-177000000D02*
X29000000Y-177000000D01*
X30000000Y-161000000D02*
X29000000Y-161000000D01*
X30000000Y-145000000D02*
X29000000Y-145000000D01*
X30000000Y-129000000D02*
X29000000Y-129000000D01*
X30000000Y-113000000D02*
X29000000Y-113000000D01*
X0Y-174000000D02*
X0Y-179180000D01*
X0Y-158000000D02*
X0Y-163180000D01*
X0Y-142000000D02*
X0Y-147180000D01*
X0Y-126000000D02*
X0Y-131180000D01*
X0Y-110000000D02*
X0Y-115180000D01*
X33000000Y-187000000D02*
X29000000Y-187000000D01*
X33000000Y-171000000D02*
X29000000Y-171000000D01*
X33000000Y-155000000D02*
X29000000Y-155000000D01*
X33000000Y-139000000D02*
X29000000Y-139000000D01*
X33000000Y-123000000D02*
X29000000Y-123000000D01*
X5366025Y-184320000D02*
G75*
G02*
X4500000Y-184820000I-866025J500000D01*
G01*
X5366025Y-168320000D02*
G75*
G02*
X4500000Y-168820000I-866025J500000D01*
G01*
X5366025Y-152320000D02*
G75*
G02*
X4500000Y-152820000I-866025J500000D01*
G01*
X5366025Y-136320000D02*
G75*
G02*
X4500000Y-136820000I-866025J500000D01*
G01*
X5366025Y-120320000D02*
G75*
G02*
X4500000Y-120820000I-866025J500000D01*
G01*
X30000000Y-177000000D02*
X33000000Y-177000000D01*
X30000000Y-161000000D02*
X33000000Y-161000000D01*
X30000000Y-145000000D02*
X33000000Y-145000000D01*
X30000000Y-129000000D02*
X33000000Y-129000000D01*
X30000000Y-113000000D02*
X33000000Y-113000000D01*
X6610000Y-182466988D02*
G75*
G03*
X6735129Y-182000000I-808846J466988D01*
G01*
X6610000Y-166466988D02*
G75*
G03*
X6735129Y-166000000I-808846J466988D01*
G01*
X6610000Y-150466988D02*
G75*
G03*
X6735129Y-150000000I-808846J466988D01*
G01*
X6610000Y-134466988D02*
G75*
G03*
X6735129Y-134000000I-808846J466988D01*
G01*
X6610000Y-118466988D02*
G75*
G03*
X6735129Y-118000000I-808846J466988D01*
G01*
X5366025Y-179680000D02*
X6610000Y-181533012D01*
X5366025Y-163680000D02*
X6610000Y-165533012D01*
X5366025Y-147680000D02*
X6610000Y-149533012D01*
X5366025Y-131680000D02*
X6610000Y-133533012D01*
X5366025Y-115680000D02*
X6610000Y-117533012D01*
X5366025Y-179680000D02*
G75*
G03*
X4500000Y-179180000I-866025J-500000D01*
G01*
X5366025Y-163680000D02*
G75*
G03*
X4500000Y-163180000I-866025J-500000D01*
G01*
X5366025Y-147680000D02*
G75*
G03*
X4500000Y-147180000I-866025J-500000D01*
G01*
X5366025Y-131680000D02*
G75*
G03*
X4500000Y-131180000I-866025J-500000D01*
G01*
X5366025Y-115680000D02*
G75*
G03*
X4500000Y-115180000I-866025J-500000D01*
G01*
X5366025Y-184320000D02*
X6610000Y-182466988D01*
X5366025Y-168320000D02*
X6610000Y-166466988D01*
X5366025Y-152320000D02*
X6610000Y-150466988D01*
X5366025Y-136320000D02*
X6610000Y-134466988D01*
X5366025Y-120320000D02*
X6610000Y-118466988D01*
X4500000Y-179180000D02*
X0Y-179180000D01*
X4500000Y-163180000D02*
X0Y-163180000D01*
X4500000Y-147180000D02*
X0Y-147180000D01*
X4500000Y-131180000D02*
X0Y-131180000D01*
X4500000Y-115180000D02*
X0Y-115180000D01*
X6610000Y-181533012D02*
G75*
G02*
X6735129Y-182000000I-808846J-466988D01*
G01*
X6610000Y-165533012D02*
G75*
G02*
X6735129Y-166000000I-808846J-466988D01*
G01*
X6610000Y-149533012D02*
G75*
G02*
X6735129Y-150000000I-808846J-466988D01*
G01*
X6610000Y-133533012D02*
G75*
G02*
X6735129Y-134000000I-808846J-466988D01*
G01*
X6610000Y-117533012D02*
G75*
G02*
X6735129Y-118000000I-808846J-466988D01*
G01*
X8542893Y-176707107D02*
G75*
G03*
X9250000Y-177000000I707107J707107D01*
G01*
X8542893Y-160707107D02*
G75*
G03*
X9250000Y-161000000I707107J707107D01*
G01*
X8542893Y-144707107D02*
G75*
G03*
X9250000Y-145000000I707107J707107D01*
G01*
X8542893Y-128707107D02*
G75*
G03*
X9250000Y-129000000I707107J707107D01*
G01*
X8542893Y-112707107D02*
G75*
G03*
X9250000Y-113000000I707107J707107D01*
G01*
X93000000Y-97000000D02*
X81250000Y-97000000D01*
X81250000Y-109000000D02*
X81250000Y-110000000D01*
X88750000Y-109000000D02*
X88750000Y-110000000D01*
X81250000Y-97000000D02*
X77000000Y-97000000D01*
X72792893Y-94707107D02*
X74542893Y-96707107D01*
X75250000Y-107000000D02*
X77000000Y-107000000D01*
X75250000Y-97000000D02*
X77000000Y-97000000D01*
X74542893Y-107292893D02*
X72792893Y-109292893D01*
X93000000Y-97000000D02*
X95000000Y-97000000D01*
X81250000Y-107000000D02*
G75*
G02*
X81250000Y-109000000I0J-1000000D01*
G01*
X88750000Y-109000000D02*
G75*
G02*
X88750000Y-107000000I0J1000000D01*
G01*
X77000000Y-107000000D02*
X81250000Y-107000000D01*
X88750000Y-107000000D02*
X93000000Y-107000000D01*
X72792893Y-94707107D02*
G75*
G02*
X72500000Y-94000000I707107J707107D01*
G01*
X72792893Y-109292893D02*
G75*
G03*
X72500000Y-110000000I707107J-707107D01*
G01*
X95000000Y-107000000D02*
X93000000Y-107000000D01*
X70500000Y-104820000D02*
X66000000Y-104820000D01*
X74542893Y-107292893D02*
G75*
G02*
X75250000Y-107000000I707107J-707107D01*
G01*
X96000000Y-97000000D02*
X95000000Y-97000000D01*
X99000000Y-107000000D02*
X95000000Y-107000000D01*
X71366025Y-104320000D02*
G75*
G02*
X70500000Y-104820000I-866025J500000D01*
G01*
X96000000Y-97000000D02*
X99000000Y-97000000D01*
X72610000Y-102466988D02*
G75*
G03*
X72735129Y-102000000I-808846J466988D01*
G01*
X71366025Y-99680000D02*
X72610000Y-101533012D01*
X71366025Y-99680000D02*
G75*
G03*
X70500000Y-99180000I-866025J-500000D01*
G01*
X71366025Y-104320000D02*
X72610000Y-102466988D01*
X70500000Y-99180000D02*
X66000000Y-99180000D01*
X72610000Y-101533012D02*
G75*
G02*
X72735129Y-102000000I-808846J-466988D01*
G01*
X74542893Y-96707107D02*
G75*
G03*
X75250000Y-97000000I707107J707107D01*
G01*
X43250000Y-109000000D02*
X43250000Y-110000000D01*
X50750000Y-109000000D02*
X50750000Y-110000000D01*
X50750000Y-109000000D02*
G75*
G02*
X50750000Y-107000000I0J1000000D01*
G01*
X39000000Y-107000000D02*
X43250000Y-107000000D01*
X43250000Y-107000000D02*
G75*
G02*
X43250000Y-109000000I0J-1000000D01*
G01*
X50750000Y-107000000D02*
X55000000Y-107000000D01*
X59207107Y-109292893D02*
X57457107Y-107292893D01*
X56750000Y-97000000D02*
X55000000Y-97000000D01*
X56750000Y-107000000D02*
X55000000Y-107000000D01*
X57457107Y-96707107D02*
X59207107Y-94707107D01*
X39000000Y-107000000D02*
X37000000Y-107000000D01*
X55000000Y-97000000D02*
X50750000Y-97000000D01*
X50750000Y-97000000D02*
X39000000Y-97000000D01*
X59207107Y-109292893D02*
G75*
G02*
X59500000Y-110000000I-707107J-707107D01*
G01*
X59207107Y-94707107D02*
G75*
G03*
X59500000Y-94000000I-707107J707107D01*
G01*
X37000000Y-97000000D02*
X39000000Y-97000000D01*
X61500000Y-99180000D02*
X66000000Y-99180000D01*
X57457107Y-96707107D02*
G75*
G02*
X56750000Y-97000000I-707107J707107D01*
G01*
X36000000Y-107000000D02*
X37000000Y-107000000D01*
X33000000Y-97000000D02*
X37000000Y-97000000D01*
X60633975Y-99680000D02*
G75*
G02*
X61500000Y-99180000I866025J-500000D01*
G01*
X36000000Y-107000000D02*
X33000000Y-107000000D01*
X59390000Y-101533012D02*
G75*
G03*
X59264871Y-102000000I808846J-466988D01*
G01*
X60633975Y-104320000D02*
X59390000Y-102466988D01*
X60633975Y-104320000D02*
G75*
G03*
X61500000Y-104820000I866025J500000D01*
G01*
X60633975Y-99680000D02*
X59390000Y-101533012D01*
X61500000Y-104820000D02*
X66000000Y-104820000D01*
X59390000Y-102466988D02*
G75*
G02*
X59264871Y-102000000I808846J466988D01*
G01*
X57457107Y-107292893D02*
G75*
G03*
X56750000Y-107000000I-707107J-707107D01*
G01*
X27000000Y-97000000D02*
X29000000Y-97000000D01*
X9250000Y-97000000D02*
X11000000Y-97000000D01*
X9250000Y-107000000D02*
X11000000Y-107000000D01*
X6792893Y-94707107D02*
X8542893Y-96707107D01*
X8542893Y-107292893D02*
X6792893Y-109292893D01*
X27000000Y-97000000D02*
X22750000Y-97000000D01*
X15250000Y-97000000D02*
X11000000Y-97000000D01*
X22750000Y-109000000D02*
X22750000Y-110000000D01*
X15250000Y-109000000D02*
X15250000Y-110000000D01*
X6792893Y-109292893D02*
G75*
G03*
X6500000Y-110000000I707107J-707107D01*
G01*
X6792893Y-94707107D02*
G75*
G02*
X6500000Y-94000000I707107J707107D01*
G01*
X8542893Y-96707107D02*
G75*
G03*
X9250000Y-97000000I707107J707107D01*
G01*
X6610000Y-101533012D02*
G75*
G02*
X6735129Y-102000000I-808846J-466988D01*
G01*
X4500000Y-99180000D02*
X0Y-99180000D01*
X5366025Y-104320000D02*
X6610000Y-102466988D01*
X5366025Y-99680000D02*
G75*
G03*
X4500000Y-99180000I-866025J-500000D01*
G01*
X5366025Y-99680000D02*
X6610000Y-101533012D01*
X6610000Y-102466988D02*
G75*
G03*
X6735129Y-102000000I-808846J466988D01*
G01*
X30000000Y-97000000D02*
X33000000Y-97000000D01*
X5366025Y-104320000D02*
G75*
G02*
X4500000Y-104820000I-866025J500000D01*
G01*
X33000000Y-107000000D02*
X29000000Y-107000000D01*
X0Y-94000000D02*
X0Y-99180000D01*
X30000000Y-97000000D02*
X29000000Y-97000000D01*
X8542893Y-107292893D02*
G75*
G02*
X9250000Y-107000000I707107J-707107D01*
G01*
X0Y-110000000D02*
X0Y-104820000D01*
X4500000Y-104820000D02*
X0Y-104820000D01*
X29000000Y-107000000D02*
X27000000Y-107000000D01*
X22750000Y-107000000D02*
X27000000Y-107000000D01*
X11000000Y-107000000D02*
X15250000Y-107000000D01*
X22750000Y-109000000D02*
G75*
G02*
X22750000Y-107000000I0J1000000D01*
G01*
X15250000Y-107000000D02*
G75*
G02*
X15250000Y-109000000I0J-1000000D01*
G01*
M02*
