M48
; DRILL file {KiCad (5.1.10)-1} date 12/18/21 23:32:24
; FORMAT={-:-/ absolute / inch / decimal}
; #@! TF.CreationDate,2021-12-18T23:32:24-05:00
; #@! TF.GenerationSoftware,Kicad,Pcbnew,(5.1.10)-1
; #@! TF.FileFunction,NonPlated,1,2,NPTH
FMAT,2
INCH
T1C0.0197
%
G90
G05
T1
X0.6594Y-4.2224
X0.6594Y-4.2815
X0.6594Y-4.3799
X0.6594Y-4.439
X0.6594Y-4.8524
X0.6594Y-4.9114
X0.6594Y-5.0098
X0.6594Y-5.0689
X0.6594Y-5.4823
X0.6594Y-5.5413
X0.6594Y-5.6398
X0.6594Y-5.6988
X0.6594Y-6.1122
X0.6594Y-6.1713
X0.6594Y-6.2697
X0.6594Y-6.3287
X0.6594Y-6.7421
X0.6594Y-6.8012
X0.6594Y-6.8996
X0.6594Y-6.9587
X0.689Y-4.2224
X0.689Y-4.2815
X0.689Y-4.3799
X0.689Y-4.439
X0.689Y-4.8524
X0.689Y-4.9114
X0.689Y-5.0098
X0.689Y-5.0689
X0.689Y-5.4823
X0.689Y-5.5413
X0.689Y-5.6398
X0.689Y-5.6988
X0.689Y-6.1122
X0.689Y-6.1713
X0.689Y-6.2697
X0.689Y-6.3287
X0.689Y-6.7421
X0.689Y-6.8012
X0.689Y-6.8996
X0.689Y-6.9587
X0.7185Y-4.2224
X0.7185Y-4.2815
X0.7185Y-4.3799
X0.7185Y-4.439
X0.7185Y-4.8524
X0.7185Y-4.9114
X0.7185Y-5.0098
X0.7185Y-5.0689
X0.7185Y-5.4823
X0.7185Y-5.5413
X0.7185Y-5.6398
X0.7185Y-5.6988
X0.7185Y-6.1122
X0.7185Y-6.1713
X0.7185Y-6.2697
X0.7185Y-6.3287
X0.7185Y-6.7421
X0.7185Y-6.8012
X0.7185Y-6.8996
X0.7185Y-6.9587
X0.748Y-4.2224
X0.748Y-4.2815
X0.748Y-4.3799
X0.748Y-4.439
X0.748Y-4.8524
X0.748Y-4.9114
X0.748Y-5.0098
X0.748Y-5.0689
X0.748Y-5.4823
X0.748Y-5.5413
X0.748Y-5.6398
X0.748Y-5.6988
X0.748Y-6.1122
X0.748Y-6.1713
X0.748Y-6.2697
X0.748Y-6.3287
X0.748Y-6.7421
X0.748Y-6.8012
X0.748Y-6.8996
X0.748Y-6.9587
X0.7776Y-4.2224
X0.7776Y-4.2815
X0.7776Y-4.3799
X0.7776Y-4.439
X0.7776Y-4.8524
X0.7776Y-4.9114
X0.7776Y-5.0098
X0.7776Y-5.0689
X0.7776Y-5.4823
X0.7776Y-5.5413
X0.7776Y-5.6398
X0.7776Y-5.6988
X0.7776Y-6.1122
X0.7776Y-6.1713
X0.7776Y-6.2697
X0.7776Y-6.3287
X0.7776Y-6.7421
X0.7776Y-6.8012
X0.7776Y-6.8996
X0.7776Y-6.9587
X0.8071Y-4.2224
X0.8071Y-4.2815
X0.8071Y-4.3799
X0.8071Y-4.439
X0.8071Y-4.8524
X0.8071Y-4.9114
X0.8071Y-5.0098
X0.8071Y-5.0689
X0.8071Y-5.4823
X0.8071Y-5.5413
X0.8071Y-5.6398
X0.8071Y-5.6988
X0.8071Y-6.1122
X0.8071Y-6.1713
X0.8071Y-6.2697
X0.8071Y-6.3287
X0.8071Y-6.7421
X0.8071Y-6.8012
X0.8071Y-6.8996
X0.8071Y-6.9587
X0.8366Y-4.2224
X0.8366Y-4.2815
X0.8366Y-4.3799
X0.8366Y-4.439
X0.8366Y-4.8524
X0.8366Y-4.9114
X0.8366Y-5.0098
X0.8366Y-5.0689
X0.8366Y-5.4823
X0.8366Y-5.5413
X0.8366Y-5.6398
X0.8366Y-5.6988
X0.8366Y-6.1122
X0.8366Y-6.1713
X0.8366Y-6.2697
X0.8366Y-6.3287
X0.8366Y-6.7421
X0.8366Y-6.8012
X0.8366Y-6.8996
X0.8366Y-6.9587
X1.7618Y-4.2224
X1.7618Y-4.2815
X1.7618Y-4.3799
X1.7618Y-4.439
X1.7618Y-4.8524
X1.7618Y-4.9114
X1.7618Y-5.0098
X1.7618Y-5.0689
X1.7618Y-5.4823
X1.7618Y-5.5413
X1.7618Y-5.6398
X1.7618Y-5.6988
X1.7618Y-6.1122
X1.7618Y-6.1713
X1.7618Y-6.2697
X1.7618Y-6.3287
X1.7618Y-6.7421
X1.7618Y-6.8012
X1.7618Y-6.8996
X1.7618Y-6.9587
X1.7913Y-4.2224
X1.7913Y-4.2815
X1.7913Y-4.3799
X1.7913Y-4.439
X1.7913Y-4.8524
X1.7913Y-4.9114
X1.7913Y-5.0098
X1.7913Y-5.0689
X1.7913Y-5.4823
X1.7913Y-5.5413
X1.7913Y-5.6398
X1.7913Y-5.6988
X1.7913Y-6.1122
X1.7913Y-6.1713
X1.7913Y-6.2697
X1.7913Y-6.3287
X1.7913Y-6.7421
X1.7913Y-6.8012
X1.7913Y-6.8996
X1.7913Y-6.9587
X1.8209Y-4.2224
X1.8209Y-4.2815
X1.8209Y-4.3799
X1.8209Y-4.439
X1.8209Y-4.8524
X1.8209Y-4.9114
X1.8209Y-5.0098
X1.8209Y-5.0689
X1.8209Y-5.4823
X1.8209Y-5.5413
X1.8209Y-5.6398
X1.8209Y-5.6988
X1.8209Y-6.1122
X1.8209Y-6.1713
X1.8209Y-6.2697
X1.8209Y-6.3287
X1.8209Y-6.7421
X1.8209Y-6.8012
X1.8209Y-6.8996
X1.8209Y-6.9587
X1.8504Y-4.2224
X1.8504Y-4.2815
X1.8504Y-4.3799
X1.8504Y-4.439
X1.8504Y-4.8524
X1.8504Y-4.9114
X1.8504Y-5.0098
X1.8504Y-5.0689
X1.8504Y-5.4823
X1.8504Y-5.5413
X1.8504Y-5.6398
X1.8504Y-5.6988
X1.8504Y-6.1122
X1.8504Y-6.1713
X1.8504Y-6.2697
X1.8504Y-6.3287
X1.8504Y-6.7421
X1.8504Y-6.8012
X1.8504Y-6.8996
X1.8504Y-6.9587
X1.8799Y-4.2224
X1.8799Y-4.2815
X1.8799Y-4.3799
X1.8799Y-4.439
X1.8799Y-4.8524
X1.8799Y-4.9114
X1.8799Y-5.0098
X1.8799Y-5.0689
X1.8799Y-5.4823
X1.8799Y-5.5413
X1.8799Y-5.6398
X1.8799Y-5.6988
X1.8799Y-6.1122
X1.8799Y-6.1713
X1.8799Y-6.2697
X1.8799Y-6.3287
X1.8799Y-6.7421
X1.8799Y-6.8012
X1.8799Y-6.8996
X1.8799Y-6.9587
X1.9094Y-4.2224
X1.9094Y-4.2815
X1.9094Y-4.3799
X1.9094Y-4.439
X1.9094Y-4.8524
X1.9094Y-4.9114
X1.9094Y-5.0098
X1.9094Y-5.0689
X1.9094Y-5.4823
X1.9094Y-5.5413
X1.9094Y-5.6398
X1.9094Y-5.6988
X1.9094Y-6.1122
X1.9094Y-6.1713
X1.9094Y-6.2697
X1.9094Y-6.3287
X1.9094Y-6.7421
X1.9094Y-6.8012
X1.9094Y-6.8996
X1.9094Y-6.9587
X1.939Y-4.2224
X1.939Y-4.2815
X1.939Y-4.3799
X1.939Y-4.439
X1.939Y-4.8524
X1.939Y-4.9114
X1.939Y-5.0098
X1.939Y-5.0689
X1.939Y-5.4823
X1.939Y-5.5413
X1.939Y-5.6398
X1.939Y-5.6988
X1.939Y-6.1122
X1.939Y-6.1713
X1.939Y-6.2697
X1.939Y-6.3287
X1.939Y-6.7421
X1.939Y-6.8012
X1.939Y-6.8996
X1.939Y-6.9587
X3.2579Y-4.2224
X3.2579Y-4.2815
X3.2579Y-4.3799
X3.2579Y-4.439
X3.2579Y-4.8524
X3.2579Y-4.9114
X3.2579Y-5.0098
X3.2579Y-5.0689
X3.2579Y-5.4823
X3.2579Y-5.5413
X3.2579Y-5.6398
X3.2579Y-5.6988
X3.2579Y-6.1122
X3.2579Y-6.1713
X3.2579Y-6.2697
X3.2579Y-6.3287
X3.2579Y-6.7421
X3.2579Y-6.8012
X3.2579Y-6.8996
X3.2579Y-6.9587
X3.2874Y-4.2224
X3.2874Y-4.2815
X3.2874Y-4.3799
X3.2874Y-4.439
X3.2874Y-4.8524
X3.2874Y-4.9114
X3.2874Y-5.0098
X3.2874Y-5.0689
X3.2874Y-5.4823
X3.2874Y-5.5413
X3.2874Y-5.6398
X3.2874Y-5.6988
X3.2874Y-6.1122
X3.2874Y-6.1713
X3.2874Y-6.2697
X3.2874Y-6.3287
X3.2874Y-6.7421
X3.2874Y-6.8012
X3.2874Y-6.8996
X3.2874Y-6.9587
X3.3169Y-4.2224
X3.3169Y-4.2815
X3.3169Y-4.3799
X3.3169Y-4.439
X3.3169Y-4.8524
X3.3169Y-4.9114
X3.3169Y-5.0098
X3.3169Y-5.0689
X3.3169Y-5.4823
X3.3169Y-5.5413
X3.3169Y-5.6398
X3.3169Y-5.6988
X3.3169Y-6.1122
X3.3169Y-6.1713
X3.3169Y-6.2697
X3.3169Y-6.3287
X3.3169Y-6.7421
X3.3169Y-6.8012
X3.3169Y-6.8996
X3.3169Y-6.9587
X3.3465Y-4.2224
X3.3465Y-4.2815
X3.3465Y-4.3799
X3.3465Y-4.439
X3.3465Y-4.8524
X3.3465Y-4.9114
X3.3465Y-5.0098
X3.3465Y-5.0689
X3.3465Y-5.4823
X3.3465Y-5.5413
X3.3465Y-5.6398
X3.3465Y-5.6988
X3.3465Y-6.1122
X3.3465Y-6.1713
X3.3465Y-6.2697
X3.3465Y-6.3287
X3.3465Y-6.7421
X3.3465Y-6.8012
X3.3465Y-6.8996
X3.3465Y-6.9587
X3.376Y-4.2224
X3.376Y-4.2815
X3.376Y-4.3799
X3.376Y-4.439
X3.376Y-4.8524
X3.376Y-4.9114
X3.376Y-5.0098
X3.376Y-5.0689
X3.376Y-5.4823
X3.376Y-5.5413
X3.376Y-5.6398
X3.376Y-5.6988
X3.376Y-6.1122
X3.376Y-6.1713
X3.376Y-6.2697
X3.376Y-6.3287
X3.376Y-6.7421
X3.376Y-6.8012
X3.376Y-6.8996
X3.376Y-6.9587
X3.4055Y-4.2224
X3.4055Y-4.2815
X3.4055Y-4.3799
X3.4055Y-4.439
X3.4055Y-4.8524
X3.4055Y-4.9114
X3.4055Y-5.0098
X3.4055Y-5.0689
X3.4055Y-5.4823
X3.4055Y-5.5413
X3.4055Y-5.6398
X3.4055Y-5.6988
X3.4055Y-6.1122
X3.4055Y-6.1713
X3.4055Y-6.2697
X3.4055Y-6.3287
X3.4055Y-6.7421
X3.4055Y-6.8012
X3.4055Y-6.8996
X3.4055Y-6.9587
X3.435Y-4.2224
X3.435Y-4.2815
X3.435Y-4.3799
X3.435Y-4.439
X3.435Y-4.8524
X3.435Y-4.9114
X3.435Y-5.0098
X3.435Y-5.0689
X3.435Y-5.4823
X3.435Y-5.5413
X3.435Y-5.6398
X3.435Y-5.6988
X3.435Y-6.1122
X3.435Y-6.1713
X3.435Y-6.2697
X3.435Y-6.3287
X3.435Y-6.7421
X3.435Y-6.8012
X3.435Y-6.8996
X3.435Y-6.9587
T0
M30
