%FSLAX45Y45*%
G04 Gerber Fmt 4.5, Leading zero omitted, Abs format (unit mm)*
G04 Created by KiCad (PCBNEW (5.1.10)-1) date 2021-12-18 23:32:23*
%MOMM*%
%LPD*%
G01*
G04 APERTURE LIST*
%TA.AperFunction,Profile*%
%ADD10C,0.050000*%
%TD*%
%ADD11C,0.200000*%
%ADD12C,0.300000*%
G04 APERTURE END LIST*
D10*
X9900000Y-17700000D02*
X9900000Y-18700000D01*
X9900000Y-16100000D02*
X9900000Y-17100000D01*
X9900000Y-14500000D02*
X9900000Y-15500000D01*
X9900000Y-12900000D02*
X9900000Y-13900000D01*
X9900000Y-11300000D02*
X9900000Y-12300000D01*
X9900000Y-9700000D02*
X9900000Y-10700000D01*
X8125000Y-18700000D02*
X8875000Y-18700000D01*
X5950000Y-19000000D02*
X7250000Y-19000000D01*
X1525000Y-18700000D02*
X2275000Y-18700000D01*
X0Y-19000000D02*
X650000Y-19000000D01*
X5950000Y-9400000D02*
X7250000Y-9400000D01*
X1525000Y-9700000D02*
X2275000Y-9700000D01*
X0Y-9400000D02*
X650000Y-9400000D01*
X2275000Y-17500000D02*
X2275000Y-17400000D01*
X2275000Y-15900000D02*
X2275000Y-15800000D01*
X2275000Y-14300000D02*
X2275000Y-14200000D01*
X2275000Y-12700000D02*
X2275000Y-12600000D01*
X2275000Y-11100000D02*
X2275000Y-11000000D01*
X1525000Y-17500000D02*
X1525000Y-17400000D01*
X1525000Y-15900000D02*
X1525000Y-15800000D01*
X1525000Y-14300000D02*
X1525000Y-14200000D01*
X1525000Y-12700000D02*
X1525000Y-12600000D01*
X1525000Y-11100000D02*
X1525000Y-11000000D01*
X1525000Y-17500000D02*
G75*
G02*
X1525000Y-17700000I0J-100000D01*
G01*
X1525000Y-15900000D02*
G75*
G02*
X1525000Y-16100000I0J-100000D01*
G01*
X1525000Y-14300000D02*
G75*
G02*
X1525000Y-14500000I0J-100000D01*
G01*
X1525000Y-12700000D02*
G75*
G02*
X1525000Y-12900000I0J-100000D01*
G01*
X1525000Y-11100000D02*
G75*
G02*
X1525000Y-11300000I0J-100000D01*
G01*
X2700000Y-17700000D02*
X2275000Y-17700000D01*
X2700000Y-16100000D02*
X2275000Y-16100000D01*
X2700000Y-14500000D02*
X2275000Y-14500000D01*
X2700000Y-12900000D02*
X2275000Y-12900000D01*
X2700000Y-11300000D02*
X2275000Y-11300000D01*
X1525000Y-17300000D02*
X1525000Y-17400000D01*
X1525000Y-15700000D02*
X1525000Y-15800000D01*
X1525000Y-14100000D02*
X1525000Y-14200000D01*
X1525000Y-12500000D02*
X1525000Y-12600000D01*
X2275000Y-17300000D02*
X2275000Y-17400000D01*
X2275000Y-15700000D02*
X2275000Y-15800000D01*
X2275000Y-14100000D02*
X2275000Y-14200000D01*
X2275000Y-12500000D02*
X2275000Y-12600000D01*
X2275000Y-17700000D02*
G75*
G02*
X2275000Y-17500000I0J100000D01*
G01*
X2275000Y-16100000D02*
G75*
G02*
X2275000Y-15900000I0J100000D01*
G01*
X2275000Y-14500000D02*
G75*
G02*
X2275000Y-14300000I0J100000D01*
G01*
X2275000Y-12900000D02*
G75*
G02*
X2275000Y-12700000I0J100000D01*
G01*
X2275000Y-11300000D02*
G75*
G02*
X2275000Y-11100000I0J100000D01*
G01*
X1525000Y-17700000D02*
X1100000Y-17700000D01*
X1525000Y-16100000D02*
X1100000Y-16100000D01*
X1525000Y-14500000D02*
X1100000Y-14500000D01*
X1525000Y-12900000D02*
X1100000Y-12900000D01*
X1525000Y-11300000D02*
X1100000Y-11300000D01*
X6150000Y-18482000D02*
X6600000Y-18482000D01*
X6150000Y-16882000D02*
X6600000Y-16882000D01*
X6150000Y-15282000D02*
X6600000Y-15282000D01*
X6150000Y-13682000D02*
X6600000Y-13682000D01*
X6150000Y-12082000D02*
X6600000Y-12082000D01*
X679289Y-17470711D02*
X854289Y-17670711D01*
X679289Y-15870711D02*
X854289Y-16070711D01*
X679289Y-14270711D02*
X854289Y-14470711D01*
X679289Y-12670711D02*
X854289Y-12870711D01*
X679289Y-11070711D02*
X854289Y-11270711D01*
X7136602Y-17968000D02*
G75*
G03*
X7050000Y-17918000I-86603J-50000D01*
G01*
X7136602Y-16368000D02*
G75*
G03*
X7050000Y-16318000I-86603J-50000D01*
G01*
X7136602Y-14768000D02*
G75*
G03*
X7050000Y-14718000I-86603J-50000D01*
G01*
X7136602Y-13168000D02*
G75*
G03*
X7050000Y-13118000I-86603J-50000D01*
G01*
X7136602Y-11568000D02*
G75*
G03*
X7050000Y-11518000I-86603J-50000D01*
G01*
X6063397Y-17968000D02*
G75*
G02*
X6150000Y-17918000I86603J-50000D01*
G01*
X6063397Y-16368000D02*
G75*
G02*
X6150000Y-16318000I86603J-50000D01*
G01*
X6063397Y-14768000D02*
G75*
G02*
X6150000Y-14718000I86603J-50000D01*
G01*
X6063397Y-13168000D02*
G75*
G02*
X6150000Y-13118000I86603J-50000D01*
G01*
X6063397Y-11568000D02*
G75*
G02*
X6150000Y-11518000I86603J-50000D01*
G01*
X7136602Y-18432000D02*
X7261000Y-18246699D01*
X7136602Y-16832000D02*
X7261000Y-16646699D01*
X7136602Y-15232000D02*
X7261000Y-15046699D01*
X7136602Y-13632000D02*
X7261000Y-13446699D01*
X7136602Y-12032000D02*
X7261000Y-11846699D01*
X7050000Y-17918000D02*
X6600000Y-17918000D01*
X7050000Y-16318000D02*
X6600000Y-16318000D01*
X7050000Y-14718000D02*
X6600000Y-14718000D01*
X7050000Y-13118000D02*
X6600000Y-13118000D01*
X7050000Y-11518000D02*
X6600000Y-11518000D01*
X7261000Y-18153301D02*
G75*
G02*
X7273513Y-18200000I-80885J-46699D01*
G01*
X7261000Y-16553301D02*
G75*
G02*
X7273513Y-16600000I-80885J-46699D01*
G01*
X7261000Y-14953301D02*
G75*
G02*
X7273513Y-15000000I-80885J-46699D01*
G01*
X7261000Y-13353301D02*
G75*
G02*
X7273513Y-13400000I-80885J-46699D01*
G01*
X7261000Y-11753301D02*
G75*
G02*
X7273513Y-11800000I-80885J-46699D01*
G01*
X4325000Y-17500000D02*
X4325000Y-17400000D01*
X4325000Y-15900000D02*
X4325000Y-15800000D01*
X4325000Y-14300000D02*
X4325000Y-14200000D01*
X4325000Y-12700000D02*
X4325000Y-12600000D01*
X4325000Y-11100000D02*
X4325000Y-11000000D01*
X6063397Y-17968000D02*
X5939000Y-18153301D01*
X6063397Y-16368000D02*
X5939000Y-16553301D01*
X6063397Y-14768000D02*
X5939000Y-14953301D01*
X6063397Y-13168000D02*
X5939000Y-13353301D01*
X6063397Y-11568000D02*
X5939000Y-11753301D01*
X4325000Y-17300000D02*
X4325000Y-17400000D01*
X4325000Y-15700000D02*
X4325000Y-15800000D01*
X4325000Y-14100000D02*
X4325000Y-14200000D01*
X4325000Y-12500000D02*
X4325000Y-12600000D01*
X5075000Y-17300000D02*
G75*
G02*
X5075000Y-17100000I0J100000D01*
G01*
X5075000Y-15700000D02*
G75*
G02*
X5075000Y-15500000I0J100000D01*
G01*
X5075000Y-14100000D02*
G75*
G02*
X5075000Y-13900000I0J100000D01*
G01*
X5075000Y-12500000D02*
G75*
G02*
X5075000Y-12300000I0J100000D01*
G01*
X5075000Y-18700000D02*
X5500000Y-18700000D01*
X5075000Y-17100000D02*
X5500000Y-17100000D01*
X5075000Y-15500000D02*
X5500000Y-15500000D01*
X5075000Y-13900000D02*
X5500000Y-13900000D01*
X5075000Y-12300000D02*
X5500000Y-12300000D01*
X5920711Y-18929289D02*
X5745711Y-18729289D01*
X5920711Y-17329289D02*
X5745711Y-17129289D01*
X5920711Y-15729289D02*
X5745711Y-15529289D01*
X5920711Y-14129289D02*
X5745711Y-13929289D01*
X5920711Y-12529289D02*
X5745711Y-12329289D01*
X5920711Y-18929289D02*
G75*
G02*
X5950000Y-19000000I-70711J-70711D01*
G01*
X5920711Y-17329289D02*
G75*
G02*
X5950000Y-17400000I-70711J-70711D01*
G01*
X5920711Y-15729289D02*
G75*
G02*
X5950000Y-15800000I-70711J-70711D01*
G01*
X5920711Y-14129289D02*
G75*
G02*
X5950000Y-14200000I-70711J-70711D01*
G01*
X5920711Y-12529289D02*
G75*
G02*
X5950000Y-12600000I-70711J-70711D01*
G01*
X3300000Y-17700000D02*
X3700000Y-17700000D01*
X3300000Y-16100000D02*
X3700000Y-16100000D01*
X3300000Y-14500000D02*
X3700000Y-14500000D01*
X3300000Y-12900000D02*
X3700000Y-12900000D01*
X3300000Y-11300000D02*
X3700000Y-11300000D01*
X6150000Y-17918000D02*
X6600000Y-17918000D01*
X6150000Y-16318000D02*
X6600000Y-16318000D01*
X6150000Y-14718000D02*
X6600000Y-14718000D01*
X6150000Y-13118000D02*
X6600000Y-13118000D01*
X6150000Y-11518000D02*
X6600000Y-11518000D01*
X5675000Y-18700000D02*
X5500000Y-18700000D01*
X5675000Y-17100000D02*
X5500000Y-17100000D01*
X5675000Y-15500000D02*
X5500000Y-15500000D01*
X5675000Y-13900000D02*
X5500000Y-13900000D01*
X5675000Y-12300000D02*
X5500000Y-12300000D01*
X5939000Y-18246699D02*
G75*
G02*
X5926487Y-18200000I80885J46699D01*
G01*
X5939000Y-16646699D02*
G75*
G02*
X5926487Y-16600000I80885J46699D01*
G01*
X5939000Y-15046699D02*
G75*
G02*
X5926487Y-15000000I80885J46699D01*
G01*
X5939000Y-13446699D02*
G75*
G02*
X5926487Y-13400000I80885J46699D01*
G01*
X5939000Y-11846699D02*
G75*
G02*
X5926487Y-11800000I80885J46699D01*
G01*
X3900000Y-18700000D02*
X3700000Y-18700000D01*
X3900000Y-17100000D02*
X3700000Y-17100000D01*
X3900000Y-15500000D02*
X3700000Y-15500000D01*
X3900000Y-13900000D02*
X3700000Y-13900000D01*
X3900000Y-12300000D02*
X3700000Y-12300000D01*
X925000Y-18700000D02*
X1100000Y-18700000D01*
X925000Y-17100000D02*
X1100000Y-17100000D01*
X925000Y-15500000D02*
X1100000Y-15500000D01*
X925000Y-13900000D02*
X1100000Y-13900000D01*
X925000Y-12300000D02*
X1100000Y-12300000D01*
X5920711Y-17470711D02*
G75*
G03*
X5950000Y-17400000I-70711J70711D01*
G01*
X5920711Y-15870711D02*
G75*
G03*
X5950000Y-15800000I-70711J70711D01*
G01*
X5920711Y-14270711D02*
G75*
G03*
X5950000Y-14200000I-70711J70711D01*
G01*
X5920711Y-12670711D02*
G75*
G03*
X5950000Y-12600000I-70711J70711D01*
G01*
X5920711Y-11070711D02*
G75*
G03*
X5950000Y-11000000I-70711J70711D01*
G01*
X3700000Y-17700000D02*
X3900000Y-17700000D01*
X3700000Y-16100000D02*
X3900000Y-16100000D01*
X3700000Y-14500000D02*
X3900000Y-14500000D01*
X3700000Y-12900000D02*
X3900000Y-12900000D01*
X3700000Y-11300000D02*
X3900000Y-11300000D01*
X3600000Y-18700000D02*
X3700000Y-18700000D01*
X3600000Y-17100000D02*
X3700000Y-17100000D01*
X3600000Y-15500000D02*
X3700000Y-15500000D01*
X3600000Y-13900000D02*
X3700000Y-13900000D01*
X3600000Y-12300000D02*
X3700000Y-12300000D01*
X925000Y-17700000D02*
X1100000Y-17700000D01*
X925000Y-16100000D02*
X1100000Y-16100000D01*
X925000Y-14500000D02*
X1100000Y-14500000D01*
X925000Y-12900000D02*
X1100000Y-12900000D01*
X925000Y-11300000D02*
X1100000Y-11300000D01*
X5745711Y-17670711D02*
G75*
G02*
X5675000Y-17700000I-70711J70711D01*
G01*
X5745711Y-16070711D02*
G75*
G02*
X5675000Y-16100000I-70711J70711D01*
G01*
X5745711Y-14470711D02*
G75*
G02*
X5675000Y-14500000I-70711J70711D01*
G01*
X5745711Y-12870711D02*
G75*
G02*
X5675000Y-12900000I-70711J70711D01*
G01*
X5745711Y-11270711D02*
G75*
G02*
X5675000Y-11300000I-70711J70711D01*
G01*
X5745711Y-18729289D02*
G75*
G03*
X5675000Y-18700000I-70711J-70711D01*
G01*
X5745711Y-17129289D02*
G75*
G03*
X5675000Y-17100000I-70711J-70711D01*
G01*
X5745711Y-15529289D02*
G75*
G03*
X5675000Y-15500000I-70711J-70711D01*
G01*
X5745711Y-13929289D02*
G75*
G03*
X5675000Y-13900000I-70711J-70711D01*
G01*
X5745711Y-12329289D02*
G75*
G03*
X5675000Y-12300000I-70711J-70711D01*
G01*
X5075000Y-17700000D02*
G75*
G02*
X5075000Y-17500000I0J100000D01*
G01*
X5075000Y-16100000D02*
G75*
G02*
X5075000Y-15900000I0J100000D01*
G01*
X5075000Y-14500000D02*
G75*
G02*
X5075000Y-14300000I0J100000D01*
G01*
X5075000Y-12900000D02*
G75*
G02*
X5075000Y-12700000I0J100000D01*
G01*
X5075000Y-11300000D02*
G75*
G02*
X5075000Y-11100000I0J100000D01*
G01*
X4325000Y-17500000D02*
G75*
G02*
X4325000Y-17700000I0J-100000D01*
G01*
X4325000Y-15900000D02*
G75*
G02*
X4325000Y-16100000I0J-100000D01*
G01*
X4325000Y-14300000D02*
G75*
G02*
X4325000Y-14500000I0J-100000D01*
G01*
X4325000Y-12700000D02*
G75*
G02*
X4325000Y-12900000I0J-100000D01*
G01*
X4325000Y-11100000D02*
G75*
G02*
X4325000Y-11300000I0J-100000D01*
G01*
X5075000Y-17300000D02*
X5075000Y-17400000D01*
X5075000Y-15700000D02*
X5075000Y-15800000D01*
X5075000Y-14100000D02*
X5075000Y-14200000D01*
X5075000Y-12500000D02*
X5075000Y-12600000D01*
X4325000Y-17700000D02*
X3900000Y-17700000D01*
X4325000Y-16100000D02*
X3900000Y-16100000D01*
X4325000Y-14500000D02*
X3900000Y-14500000D01*
X4325000Y-12900000D02*
X3900000Y-12900000D01*
X4325000Y-11300000D02*
X3900000Y-11300000D01*
X6063397Y-18432000D02*
G75*
G03*
X6150000Y-18482000I86603J50000D01*
G01*
X6063397Y-16832000D02*
G75*
G03*
X6150000Y-16882000I86603J50000D01*
G01*
X6063397Y-15232000D02*
G75*
G03*
X6150000Y-15282000I86603J50000D01*
G01*
X6063397Y-13632000D02*
G75*
G03*
X6150000Y-13682000I86603J50000D01*
G01*
X6063397Y-12032000D02*
G75*
G03*
X6150000Y-12082000I86603J50000D01*
G01*
X4325000Y-17100000D02*
G75*
G02*
X4325000Y-17300000I0J-100000D01*
G01*
X4325000Y-15500000D02*
G75*
G02*
X4325000Y-15700000I0J-100000D01*
G01*
X4325000Y-13900000D02*
G75*
G02*
X4325000Y-14100000I0J-100000D01*
G01*
X4325000Y-12300000D02*
G75*
G02*
X4325000Y-12500000I0J-100000D01*
G01*
X5745711Y-17670711D02*
X5920711Y-17470711D01*
X5745711Y-16070711D02*
X5920711Y-15870711D01*
X5745711Y-14470711D02*
X5920711Y-14270711D01*
X5745711Y-12870711D02*
X5920711Y-12670711D01*
X5745711Y-11270711D02*
X5920711Y-11070711D01*
X5939000Y-18153301D02*
G75*
G03*
X5926487Y-18200000I80885J-46699D01*
G01*
X5939000Y-16553301D02*
G75*
G03*
X5926487Y-16600000I80885J-46699D01*
G01*
X5939000Y-14953301D02*
G75*
G03*
X5926487Y-15000000I80885J-46699D01*
G01*
X5939000Y-13353301D02*
G75*
G03*
X5926487Y-13400000I80885J-46699D01*
G01*
X5939000Y-11753301D02*
G75*
G03*
X5926487Y-11800000I80885J-46699D01*
G01*
X854289Y-18729289D02*
X679289Y-18929289D01*
X854289Y-17129289D02*
X679289Y-17329289D01*
X854289Y-15529289D02*
X679289Y-15729289D01*
X854289Y-13929289D02*
X679289Y-14129289D01*
X854289Y-12329289D02*
X679289Y-12529289D01*
X5075000Y-17500000D02*
X5075000Y-17400000D01*
X5075000Y-15900000D02*
X5075000Y-15800000D01*
X5075000Y-14300000D02*
X5075000Y-14200000D01*
X5075000Y-12700000D02*
X5075000Y-12600000D01*
X5075000Y-11100000D02*
X5075000Y-11000000D01*
X7454289Y-18729289D02*
G75*
G02*
X7525000Y-18700000I70711J-70711D01*
G01*
X7454289Y-17129289D02*
G75*
G02*
X7525000Y-17100000I70711J-70711D01*
G01*
X7454289Y-15529289D02*
G75*
G02*
X7525000Y-15500000I70711J-70711D01*
G01*
X7454289Y-13929289D02*
G75*
G02*
X7525000Y-13900000I70711J-70711D01*
G01*
X7454289Y-12329289D02*
G75*
G02*
X7525000Y-12300000I70711J-70711D01*
G01*
X9600000Y-17700000D02*
X9500000Y-17700000D01*
X9600000Y-16100000D02*
X9500000Y-16100000D01*
X9600000Y-14500000D02*
X9500000Y-14500000D01*
X9600000Y-12900000D02*
X9500000Y-12900000D01*
X9600000Y-11300000D02*
X9500000Y-11300000D01*
X9900000Y-18700000D02*
X9500000Y-18700000D01*
X9900000Y-17100000D02*
X9500000Y-17100000D01*
X9900000Y-15500000D02*
X9500000Y-15500000D01*
X9900000Y-13900000D02*
X9500000Y-13900000D01*
X9900000Y-12300000D02*
X9500000Y-12300000D01*
X7136602Y-18432000D02*
G75*
G02*
X7050000Y-18482000I-86603J50000D01*
G01*
X7136602Y-16832000D02*
G75*
G02*
X7050000Y-16882000I-86603J50000D01*
G01*
X7136602Y-15232000D02*
G75*
G02*
X7050000Y-15282000I-86603J50000D01*
G01*
X7136602Y-13632000D02*
G75*
G02*
X7050000Y-13682000I-86603J50000D01*
G01*
X7136602Y-12032000D02*
G75*
G02*
X7050000Y-12082000I-86603J50000D01*
G01*
X3600000Y-18700000D02*
X3300000Y-18700000D01*
X3600000Y-17100000D02*
X3300000Y-17100000D01*
X3600000Y-15500000D02*
X3300000Y-15500000D01*
X3600000Y-13900000D02*
X3300000Y-13900000D01*
X3600000Y-12300000D02*
X3300000Y-12300000D01*
X5500000Y-17700000D02*
X5075000Y-17700000D01*
X5500000Y-16100000D02*
X5075000Y-16100000D01*
X5500000Y-14500000D02*
X5075000Y-14500000D01*
X5500000Y-12900000D02*
X5075000Y-12900000D01*
X5500000Y-11300000D02*
X5075000Y-11300000D01*
X9600000Y-17700000D02*
X9900000Y-17700000D01*
X9600000Y-16100000D02*
X9900000Y-16100000D01*
X9600000Y-14500000D02*
X9900000Y-14500000D01*
X9600000Y-12900000D02*
X9900000Y-12900000D01*
X9600000Y-11300000D02*
X9900000Y-11300000D01*
X6063397Y-18432000D02*
X5939000Y-18246699D01*
X6063397Y-16832000D02*
X5939000Y-16646699D01*
X6063397Y-15232000D02*
X5939000Y-15046699D01*
X6063397Y-13632000D02*
X5939000Y-13446699D01*
X6063397Y-12032000D02*
X5939000Y-11846699D01*
X5675000Y-17700000D02*
X5500000Y-17700000D01*
X5675000Y-16100000D02*
X5500000Y-16100000D01*
X5675000Y-14500000D02*
X5500000Y-14500000D01*
X5675000Y-12900000D02*
X5500000Y-12900000D01*
X5675000Y-11300000D02*
X5500000Y-11300000D01*
X7261000Y-18246699D02*
G75*
G03*
X7273513Y-18200000I-80885J46699D01*
G01*
X7261000Y-16646699D02*
G75*
G03*
X7273513Y-16600000I-80885J46699D01*
G01*
X7261000Y-15046699D02*
G75*
G03*
X7273513Y-15000000I-80885J46699D01*
G01*
X7261000Y-13446699D02*
G75*
G03*
X7273513Y-13400000I-80885J46699D01*
G01*
X7261000Y-11846699D02*
G75*
G03*
X7273513Y-11800000I-80885J46699D01*
G01*
X7136602Y-17968000D02*
X7261000Y-18153301D01*
X7136602Y-16368000D02*
X7261000Y-16553301D01*
X7136602Y-14768000D02*
X7261000Y-14953301D01*
X7136602Y-13168000D02*
X7261000Y-13353301D01*
X7136602Y-11568000D02*
X7261000Y-11753301D01*
X3900000Y-18700000D02*
X5075000Y-18700000D01*
X3900000Y-17100000D02*
X4325000Y-17100000D01*
X3900000Y-15500000D02*
X4325000Y-15500000D01*
X3900000Y-13900000D02*
X4325000Y-13900000D01*
X3900000Y-12300000D02*
X4325000Y-12300000D01*
X2700000Y-17700000D02*
X2900000Y-17700000D01*
X2700000Y-16100000D02*
X2900000Y-16100000D01*
X2700000Y-14500000D02*
X2900000Y-14500000D01*
X2700000Y-12900000D02*
X2900000Y-12900000D01*
X2700000Y-11300000D02*
X2900000Y-11300000D01*
X7454289Y-17670711D02*
G75*
G03*
X7525000Y-17700000I70711J70711D01*
G01*
X7454289Y-16070711D02*
G75*
G03*
X7525000Y-16100000I70711J70711D01*
G01*
X7454289Y-14470711D02*
G75*
G03*
X7525000Y-14500000I70711J70711D01*
G01*
X7454289Y-12870711D02*
G75*
G03*
X7525000Y-12900000I70711J70711D01*
G01*
X7454289Y-11270711D02*
G75*
G03*
X7525000Y-11300000I70711J70711D01*
G01*
X1525000Y-17100000D02*
G75*
G02*
X1525000Y-17300000I0J-100000D01*
G01*
X1525000Y-15500000D02*
G75*
G02*
X1525000Y-15700000I0J-100000D01*
G01*
X1525000Y-13900000D02*
G75*
G02*
X1525000Y-14100000I0J-100000D01*
G01*
X1525000Y-12300000D02*
G75*
G02*
X1525000Y-12500000I0J-100000D01*
G01*
X2275000Y-17300000D02*
G75*
G02*
X2275000Y-17100000I0J100000D01*
G01*
X2275000Y-15700000D02*
G75*
G02*
X2275000Y-15500000I0J100000D01*
G01*
X2275000Y-14100000D02*
G75*
G02*
X2275000Y-13900000I0J100000D01*
G01*
X2275000Y-12500000D02*
G75*
G02*
X2275000Y-12300000I0J100000D01*
G01*
X1100000Y-18700000D02*
X1525000Y-18700000D01*
X1100000Y-17100000D02*
X1525000Y-17100000D01*
X1100000Y-15500000D02*
X1525000Y-15500000D01*
X1100000Y-13900000D02*
X1525000Y-13900000D01*
X1100000Y-12300000D02*
X1525000Y-12300000D01*
X2275000Y-18700000D02*
X2700000Y-18700000D01*
X2275000Y-17100000D02*
X2700000Y-17100000D01*
X2275000Y-15500000D02*
X2700000Y-15500000D01*
X2275000Y-13900000D02*
X2700000Y-13900000D01*
X2275000Y-12300000D02*
X2700000Y-12300000D01*
X679289Y-17470711D02*
G75*
G02*
X650000Y-17400000I70711J70711D01*
G01*
X679289Y-15870711D02*
G75*
G02*
X650000Y-15800000I70711J70711D01*
G01*
X679289Y-14270711D02*
G75*
G02*
X650000Y-14200000I70711J70711D01*
G01*
X679289Y-12670711D02*
G75*
G02*
X650000Y-12600000I70711J70711D01*
G01*
X679289Y-11070711D02*
G75*
G02*
X650000Y-11000000I70711J70711D01*
G01*
X679289Y-18929289D02*
G75*
G03*
X650000Y-19000000I70711J-70711D01*
G01*
X679289Y-17329289D02*
G75*
G03*
X650000Y-17400000I70711J-70711D01*
G01*
X679289Y-15729289D02*
G75*
G03*
X650000Y-15800000I70711J-70711D01*
G01*
X679289Y-14129289D02*
G75*
G03*
X650000Y-14200000I70711J-70711D01*
G01*
X679289Y-12529289D02*
G75*
G03*
X650000Y-12600000I70711J-70711D01*
G01*
X7525000Y-18700000D02*
X7700000Y-18700000D01*
X7525000Y-17100000D02*
X7700000Y-17100000D01*
X7525000Y-15500000D02*
X7700000Y-15500000D01*
X7525000Y-13900000D02*
X7700000Y-13900000D01*
X7525000Y-12300000D02*
X7700000Y-12300000D01*
X8125000Y-17500000D02*
G75*
G02*
X8125000Y-17700000I0J-100000D01*
G01*
X8125000Y-15900000D02*
G75*
G02*
X8125000Y-16100000I0J-100000D01*
G01*
X8125000Y-14300000D02*
G75*
G02*
X8125000Y-14500000I0J-100000D01*
G01*
X8125000Y-12700000D02*
G75*
G02*
X8125000Y-12900000I0J-100000D01*
G01*
X8125000Y-11100000D02*
G75*
G02*
X8125000Y-11300000I0J-100000D01*
G01*
X9300000Y-17700000D02*
X8875000Y-17700000D01*
X9300000Y-16100000D02*
X8875000Y-16100000D01*
X9300000Y-14500000D02*
X8875000Y-14500000D01*
X9300000Y-12900000D02*
X8875000Y-12900000D01*
X9300000Y-11300000D02*
X8875000Y-11300000D01*
X8125000Y-17500000D02*
X8125000Y-17400000D01*
X8125000Y-15900000D02*
X8125000Y-15800000D01*
X8125000Y-14300000D02*
X8125000Y-14200000D01*
X8125000Y-12700000D02*
X8125000Y-12600000D01*
X8125000Y-11100000D02*
X8125000Y-11000000D01*
X8125000Y-17100000D02*
G75*
G02*
X8125000Y-17300000I0J-100000D01*
G01*
X8125000Y-15500000D02*
G75*
G02*
X8125000Y-15700000I0J-100000D01*
G01*
X8125000Y-13900000D02*
G75*
G02*
X8125000Y-14100000I0J-100000D01*
G01*
X8125000Y-12300000D02*
G75*
G02*
X8125000Y-12500000I0J-100000D01*
G01*
X8875000Y-17300000D02*
X8875000Y-17400000D01*
X8875000Y-15700000D02*
X8875000Y-15800000D01*
X8875000Y-14100000D02*
X8875000Y-14200000D01*
X8875000Y-12500000D02*
X8875000Y-12600000D01*
X7279289Y-18929289D02*
G75*
G03*
X7250000Y-19000000I70711J-70711D01*
G01*
X7279289Y-17329289D02*
G75*
G03*
X7250000Y-17400000I70711J-70711D01*
G01*
X7279289Y-15729289D02*
G75*
G03*
X7250000Y-15800000I70711J-70711D01*
G01*
X7279289Y-14129289D02*
G75*
G03*
X7250000Y-14200000I70711J-70711D01*
G01*
X7279289Y-12529289D02*
G75*
G03*
X7250000Y-12600000I70711J-70711D01*
G01*
X7700000Y-18700000D02*
X8125000Y-18700000D01*
X7700000Y-17100000D02*
X8125000Y-17100000D01*
X7700000Y-15500000D02*
X8125000Y-15500000D01*
X7700000Y-13900000D02*
X8125000Y-13900000D01*
X7700000Y-12300000D02*
X8125000Y-12300000D01*
X8125000Y-17300000D02*
X8125000Y-17400000D01*
X8125000Y-15700000D02*
X8125000Y-15800000D01*
X8125000Y-14100000D02*
X8125000Y-14200000D01*
X8125000Y-12500000D02*
X8125000Y-12600000D01*
X8875000Y-17300000D02*
G75*
G02*
X8875000Y-17100000I0J100000D01*
G01*
X8875000Y-15700000D02*
G75*
G02*
X8875000Y-15500000I0J100000D01*
G01*
X8875000Y-14100000D02*
G75*
G02*
X8875000Y-13900000I0J100000D01*
G01*
X8875000Y-12500000D02*
G75*
G02*
X8875000Y-12300000I0J100000D01*
G01*
X7525000Y-17700000D02*
X7700000Y-17700000D01*
X7525000Y-16100000D02*
X7700000Y-16100000D01*
X7525000Y-14500000D02*
X7700000Y-14500000D01*
X7525000Y-12900000D02*
X7700000Y-12900000D01*
X7525000Y-11300000D02*
X7700000Y-11300000D01*
X7454289Y-18729289D02*
X7279289Y-18929289D01*
X7454289Y-17129289D02*
X7279289Y-17329289D01*
X7454289Y-15529289D02*
X7279289Y-15729289D01*
X7454289Y-13929289D02*
X7279289Y-14129289D01*
X7454289Y-12329289D02*
X7279289Y-12529289D01*
X8875000Y-18700000D02*
X9300000Y-18700000D01*
X8875000Y-17100000D02*
X9300000Y-17100000D01*
X8875000Y-15500000D02*
X9300000Y-15500000D01*
X8875000Y-13900000D02*
X9300000Y-13900000D01*
X8875000Y-12300000D02*
X9300000Y-12300000D01*
X7050000Y-18482000D02*
X6600000Y-18482000D01*
X7050000Y-16882000D02*
X6600000Y-16882000D01*
X7050000Y-15282000D02*
X6600000Y-15282000D01*
X7050000Y-13682000D02*
X6600000Y-13682000D01*
X7050000Y-12082000D02*
X6600000Y-12082000D01*
X8125000Y-17700000D02*
X7700000Y-17700000D01*
X8125000Y-16100000D02*
X7700000Y-16100000D01*
X8125000Y-14500000D02*
X7700000Y-14500000D01*
X8125000Y-12900000D02*
X7700000Y-12900000D01*
X8125000Y-11300000D02*
X7700000Y-11300000D01*
X7279289Y-17470711D02*
X7454289Y-17670711D01*
X7279289Y-15870711D02*
X7454289Y-16070711D01*
X7279289Y-14270711D02*
X7454289Y-14470711D01*
X7279289Y-12670711D02*
X7454289Y-12870711D01*
X7279289Y-11070711D02*
X7454289Y-11270711D01*
X7279289Y-17470711D02*
G75*
G02*
X7250000Y-17400000I70711J70711D01*
G01*
X7279289Y-15870711D02*
G75*
G02*
X7250000Y-15800000I70711J70711D01*
G01*
X7279289Y-14270711D02*
G75*
G02*
X7250000Y-14200000I70711J70711D01*
G01*
X7279289Y-12670711D02*
G75*
G02*
X7250000Y-12600000I70711J70711D01*
G01*
X7279289Y-11070711D02*
G75*
G02*
X7250000Y-11000000I70711J70711D01*
G01*
X8875000Y-17700000D02*
G75*
G02*
X8875000Y-17500000I0J100000D01*
G01*
X8875000Y-16100000D02*
G75*
G02*
X8875000Y-15900000I0J100000D01*
G01*
X8875000Y-14500000D02*
G75*
G02*
X8875000Y-14300000I0J100000D01*
G01*
X8875000Y-12900000D02*
G75*
G02*
X8875000Y-12700000I0J100000D01*
G01*
X8875000Y-11300000D02*
G75*
G02*
X8875000Y-11100000I0J100000D01*
G01*
X8875000Y-17500000D02*
X8875000Y-17400000D01*
X8875000Y-15900000D02*
X8875000Y-15800000D01*
X8875000Y-14300000D02*
X8875000Y-14200000D01*
X8875000Y-12700000D02*
X8875000Y-12600000D01*
X8875000Y-11100000D02*
X8875000Y-11000000D01*
X9300000Y-17700000D02*
X9500000Y-17700000D01*
X9300000Y-16100000D02*
X9500000Y-16100000D01*
X9300000Y-14500000D02*
X9500000Y-14500000D01*
X9300000Y-12900000D02*
X9500000Y-12900000D01*
X9300000Y-11300000D02*
X9500000Y-11300000D01*
X9500000Y-18700000D02*
X9300000Y-18700000D01*
X9500000Y-17100000D02*
X9300000Y-17100000D01*
X9500000Y-15500000D02*
X9300000Y-15500000D01*
X9500000Y-13900000D02*
X9300000Y-13900000D01*
X9500000Y-12300000D02*
X9300000Y-12300000D01*
X2900000Y-18700000D02*
X2700000Y-18700000D01*
X2900000Y-17100000D02*
X2700000Y-17100000D01*
X2900000Y-15500000D02*
X2700000Y-15500000D01*
X2900000Y-13900000D02*
X2700000Y-13900000D01*
X2900000Y-12300000D02*
X2700000Y-12300000D01*
X450000Y-18482000D02*
X0Y-18482000D01*
X450000Y-16882000D02*
X0Y-16882000D01*
X450000Y-15282000D02*
X0Y-15282000D01*
X450000Y-13682000D02*
X0Y-13682000D01*
X450000Y-12082000D02*
X0Y-12082000D01*
X0Y-19000000D02*
X0Y-18482000D01*
X0Y-17400000D02*
X0Y-16882000D01*
X0Y-15800000D02*
X0Y-15282000D01*
X0Y-14200000D02*
X0Y-13682000D01*
X0Y-12600000D02*
X0Y-12082000D01*
X854289Y-18729289D02*
G75*
G02*
X925000Y-18700000I70711J-70711D01*
G01*
X854289Y-17129289D02*
G75*
G02*
X925000Y-17100000I70711J-70711D01*
G01*
X854289Y-15529289D02*
G75*
G02*
X925000Y-15500000I70711J-70711D01*
G01*
X854289Y-13929289D02*
G75*
G02*
X925000Y-13900000I70711J-70711D01*
G01*
X854289Y-12329289D02*
G75*
G02*
X925000Y-12300000I70711J-70711D01*
G01*
X3000000Y-17700000D02*
X2900000Y-17700000D01*
X3000000Y-16100000D02*
X2900000Y-16100000D01*
X3000000Y-14500000D02*
X2900000Y-14500000D01*
X3000000Y-12900000D02*
X2900000Y-12900000D01*
X3000000Y-11300000D02*
X2900000Y-11300000D01*
X0Y-17400000D02*
X0Y-17918000D01*
X0Y-15800000D02*
X0Y-16318000D01*
X0Y-14200000D02*
X0Y-14718000D01*
X0Y-12600000D02*
X0Y-13118000D01*
X0Y-11000000D02*
X0Y-11518000D01*
X3300000Y-18700000D02*
X2900000Y-18700000D01*
X3300000Y-17100000D02*
X2900000Y-17100000D01*
X3300000Y-15500000D02*
X2900000Y-15500000D01*
X3300000Y-13900000D02*
X2900000Y-13900000D01*
X3300000Y-12300000D02*
X2900000Y-12300000D01*
X536603Y-18432000D02*
G75*
G02*
X450000Y-18482000I-86603J50000D01*
G01*
X536603Y-16832000D02*
G75*
G02*
X450000Y-16882000I-86603J50000D01*
G01*
X536603Y-15232000D02*
G75*
G02*
X450000Y-15282000I-86603J50000D01*
G01*
X536603Y-13632000D02*
G75*
G02*
X450000Y-13682000I-86603J50000D01*
G01*
X536603Y-12032000D02*
G75*
G02*
X450000Y-12082000I-86603J50000D01*
G01*
X3000000Y-17700000D02*
X3300000Y-17700000D01*
X3000000Y-16100000D02*
X3300000Y-16100000D01*
X3000000Y-14500000D02*
X3300000Y-14500000D01*
X3000000Y-12900000D02*
X3300000Y-12900000D01*
X3000000Y-11300000D02*
X3300000Y-11300000D01*
X661000Y-18246699D02*
G75*
G03*
X673513Y-18200000I-80885J46699D01*
G01*
X661000Y-16646699D02*
G75*
G03*
X673513Y-16600000I-80885J46699D01*
G01*
X661000Y-15046699D02*
G75*
G03*
X673513Y-15000000I-80885J46699D01*
G01*
X661000Y-13446699D02*
G75*
G03*
X673513Y-13400000I-80885J46699D01*
G01*
X661000Y-11846699D02*
G75*
G03*
X673513Y-11800000I-80885J46699D01*
G01*
X536603Y-17968000D02*
X661000Y-18153301D01*
X536603Y-16368000D02*
X661000Y-16553301D01*
X536603Y-14768000D02*
X661000Y-14953301D01*
X536603Y-13168000D02*
X661000Y-13353301D01*
X536603Y-11568000D02*
X661000Y-11753301D01*
X536603Y-17968000D02*
G75*
G03*
X450000Y-17918000I-86603J-50000D01*
G01*
X536603Y-16368000D02*
G75*
G03*
X450000Y-16318000I-86603J-50000D01*
G01*
X536603Y-14768000D02*
G75*
G03*
X450000Y-14718000I-86603J-50000D01*
G01*
X536603Y-13168000D02*
G75*
G03*
X450000Y-13118000I-86603J-50000D01*
G01*
X536603Y-11568000D02*
G75*
G03*
X450000Y-11518000I-86603J-50000D01*
G01*
X536603Y-18432000D02*
X661000Y-18246699D01*
X536603Y-16832000D02*
X661000Y-16646699D01*
X536603Y-15232000D02*
X661000Y-15046699D01*
X536603Y-13632000D02*
X661000Y-13446699D01*
X536603Y-12032000D02*
X661000Y-11846699D01*
X450000Y-17918000D02*
X0Y-17918000D01*
X450000Y-16318000D02*
X0Y-16318000D01*
X450000Y-14718000D02*
X0Y-14718000D01*
X450000Y-13118000D02*
X0Y-13118000D01*
X450000Y-11518000D02*
X0Y-11518000D01*
X661000Y-18153301D02*
G75*
G02*
X673513Y-18200000I-80885J-46699D01*
G01*
X661000Y-16553301D02*
G75*
G02*
X673513Y-16600000I-80885J-46699D01*
G01*
X661000Y-14953301D02*
G75*
G02*
X673513Y-15000000I-80885J-46699D01*
G01*
X661000Y-13353301D02*
G75*
G02*
X673513Y-13400000I-80885J-46699D01*
G01*
X661000Y-11753301D02*
G75*
G02*
X673513Y-11800000I-80885J-46699D01*
G01*
X854289Y-17670711D02*
G75*
G03*
X925000Y-17700000I70711J70711D01*
G01*
X854289Y-16070711D02*
G75*
G03*
X925000Y-16100000I70711J70711D01*
G01*
X854289Y-14470711D02*
G75*
G03*
X925000Y-14500000I70711J70711D01*
G01*
X854289Y-12870711D02*
G75*
G03*
X925000Y-12900000I70711J70711D01*
G01*
X854289Y-11270711D02*
G75*
G03*
X925000Y-11300000I70711J70711D01*
G01*
X9300000Y-9700000D02*
X8125000Y-9700000D01*
X8125000Y-10900000D02*
X8125000Y-11000000D01*
X8875000Y-10900000D02*
X8875000Y-11000000D01*
X8125000Y-9700000D02*
X7700000Y-9700000D01*
X7279289Y-9470711D02*
X7454289Y-9670711D01*
X7525000Y-10700000D02*
X7700000Y-10700000D01*
X7525000Y-9700000D02*
X7700000Y-9700000D01*
X7454289Y-10729289D02*
X7279289Y-10929289D01*
X9300000Y-9700000D02*
X9500000Y-9700000D01*
X8125000Y-10700000D02*
G75*
G02*
X8125000Y-10900000I0J-100000D01*
G01*
X8875000Y-10900000D02*
G75*
G02*
X8875000Y-10700000I0J100000D01*
G01*
X7700000Y-10700000D02*
X8125000Y-10700000D01*
X8875000Y-10700000D02*
X9300000Y-10700000D01*
X7279289Y-9470711D02*
G75*
G02*
X7250000Y-9400000I70711J70711D01*
G01*
X7279289Y-10929289D02*
G75*
G03*
X7250000Y-11000000I70711J-70711D01*
G01*
X9500000Y-10700000D02*
X9300000Y-10700000D01*
X7050000Y-10482000D02*
X6600000Y-10482000D01*
X7454289Y-10729289D02*
G75*
G02*
X7525000Y-10700000I70711J-70711D01*
G01*
X9600000Y-9700000D02*
X9500000Y-9700000D01*
X9900000Y-10700000D02*
X9500000Y-10700000D01*
X7136602Y-10432000D02*
G75*
G02*
X7050000Y-10482000I-86603J50000D01*
G01*
X9600000Y-9700000D02*
X9900000Y-9700000D01*
X7261000Y-10246699D02*
G75*
G03*
X7273513Y-10200000I-80885J46699D01*
G01*
X7136602Y-9968000D02*
X7261000Y-10153301D01*
X7136602Y-9968000D02*
G75*
G03*
X7050000Y-9918000I-86603J-50000D01*
G01*
X7136602Y-10432000D02*
X7261000Y-10246699D01*
X7050000Y-9918000D02*
X6600000Y-9918000D01*
X7261000Y-10153301D02*
G75*
G02*
X7273513Y-10200000I-80885J-46699D01*
G01*
X7454289Y-9670711D02*
G75*
G03*
X7525000Y-9700000I70711J70711D01*
G01*
X4325000Y-10900000D02*
X4325000Y-11000000D01*
X5075000Y-10900000D02*
X5075000Y-11000000D01*
X5075000Y-10900000D02*
G75*
G02*
X5075000Y-10700000I0J100000D01*
G01*
X3900000Y-10700000D02*
X4325000Y-10700000D01*
X4325000Y-10700000D02*
G75*
G02*
X4325000Y-10900000I0J-100000D01*
G01*
X5075000Y-10700000D02*
X5500000Y-10700000D01*
X5920711Y-10929289D02*
X5745711Y-10729289D01*
X5675000Y-9700000D02*
X5500000Y-9700000D01*
X5675000Y-10700000D02*
X5500000Y-10700000D01*
X5745711Y-9670711D02*
X5920711Y-9470711D01*
X3900000Y-10700000D02*
X3700000Y-10700000D01*
X5500000Y-9700000D02*
X5075000Y-9700000D01*
X5075000Y-9700000D02*
X3900000Y-9700000D01*
X5920711Y-10929289D02*
G75*
G02*
X5950000Y-11000000I-70711J-70711D01*
G01*
X5920711Y-9470711D02*
G75*
G03*
X5950000Y-9400000I-70711J70711D01*
G01*
X3700000Y-9700000D02*
X3900000Y-9700000D01*
X6150000Y-9918000D02*
X6600000Y-9918000D01*
X5745711Y-9670711D02*
G75*
G02*
X5675000Y-9700000I-70711J70711D01*
G01*
X3600000Y-10700000D02*
X3700000Y-10700000D01*
X3300000Y-9700000D02*
X3700000Y-9700000D01*
X6063397Y-9968000D02*
G75*
G02*
X6150000Y-9918000I86603J-50000D01*
G01*
X3600000Y-10700000D02*
X3300000Y-10700000D01*
X5939000Y-10153301D02*
G75*
G03*
X5926487Y-10200000I80885J-46699D01*
G01*
X6063397Y-10432000D02*
X5939000Y-10246699D01*
X6063397Y-10432000D02*
G75*
G03*
X6150000Y-10482000I86603J50000D01*
G01*
X6063397Y-9968000D02*
X5939000Y-10153301D01*
X6150000Y-10482000D02*
X6600000Y-10482000D01*
X5939000Y-10246699D02*
G75*
G02*
X5926487Y-10200000I80885J46699D01*
G01*
X5745711Y-10729289D02*
G75*
G03*
X5675000Y-10700000I-70711J-70711D01*
G01*
X2700000Y-9700000D02*
X2900000Y-9700000D01*
X925000Y-9700000D02*
X1100000Y-9700000D01*
X925000Y-10700000D02*
X1100000Y-10700000D01*
X679289Y-9470711D02*
X854289Y-9670711D01*
X854289Y-10729289D02*
X679289Y-10929289D01*
X2700000Y-9700000D02*
X2275000Y-9700000D01*
X1525000Y-9700000D02*
X1100000Y-9700000D01*
X2275000Y-10900000D02*
X2275000Y-11000000D01*
X1525000Y-10900000D02*
X1525000Y-11000000D01*
X679289Y-10929289D02*
G75*
G03*
X650000Y-11000000I70711J-70711D01*
G01*
X679289Y-9470711D02*
G75*
G02*
X650000Y-9400000I70711J70711D01*
G01*
X854289Y-9670711D02*
G75*
G03*
X925000Y-9700000I70711J70711D01*
G01*
X661000Y-10153301D02*
G75*
G02*
X673513Y-10200000I-80885J-46699D01*
G01*
X450000Y-9918000D02*
X0Y-9918000D01*
X536603Y-10432000D02*
X661000Y-10246699D01*
X536603Y-9968000D02*
G75*
G03*
X450000Y-9918000I-86603J-50000D01*
G01*
X536603Y-9968000D02*
X661000Y-10153301D01*
X661000Y-10246699D02*
G75*
G03*
X673513Y-10200000I-80885J46699D01*
G01*
X3000000Y-9700000D02*
X3300000Y-9700000D01*
X536603Y-10432000D02*
G75*
G02*
X450000Y-10482000I-86603J50000D01*
G01*
X3300000Y-10700000D02*
X2900000Y-10700000D01*
X0Y-9400000D02*
X0Y-9918000D01*
X3000000Y-9700000D02*
X2900000Y-9700000D01*
X854289Y-10729289D02*
G75*
G02*
X925000Y-10700000I70711J-70711D01*
G01*
X0Y-11000000D02*
X0Y-10482000D01*
X450000Y-10482000D02*
X0Y-10482000D01*
X2900000Y-10700000D02*
X2700000Y-10700000D01*
X2275000Y-10700000D02*
X2700000Y-10700000D01*
X1100000Y-10700000D02*
X1525000Y-10700000D01*
X2275000Y-10900000D02*
G75*
G02*
X2275000Y-10700000I0J100000D01*
G01*
X1525000Y-10700000D02*
G75*
G02*
X1525000Y-10900000I0J-100000D01*
G01*
D11*
D12*
X283928Y-19468214D02*
X283928Y-19168214D01*
X355357Y-19168214D01*
X398214Y-19182500D01*
X426786Y-19211072D01*
X441071Y-19239643D01*
X455357Y-19296786D01*
X455357Y-19339643D01*
X441071Y-19396786D01*
X426786Y-19425357D01*
X398214Y-19453929D01*
X355357Y-19468214D01*
X283928Y-19468214D01*
X583928Y-19468214D02*
X583928Y-19268214D01*
X583928Y-19325357D02*
X598214Y-19296786D01*
X612500Y-19282500D01*
X641071Y-19268214D01*
X669643Y-19268214D01*
X769643Y-19468214D02*
X769643Y-19268214D01*
X769643Y-19168214D02*
X755357Y-19182500D01*
X769643Y-19196786D01*
X783928Y-19182500D01*
X769643Y-19168214D01*
X769643Y-19196786D01*
X955357Y-19468214D02*
X926786Y-19453929D01*
X912500Y-19425357D01*
X912500Y-19168214D01*
X1112500Y-19468214D02*
X1083928Y-19453929D01*
X1069643Y-19425357D01*
X1069643Y-19168214D01*
X1455357Y-19468214D02*
X1455357Y-19168214D01*
X1555357Y-19382500D01*
X1655357Y-19168214D01*
X1655357Y-19468214D01*
X1926786Y-19468214D02*
X1926786Y-19311072D01*
X1912500Y-19282500D01*
X1883928Y-19268214D01*
X1826786Y-19268214D01*
X1798214Y-19282500D01*
X1926786Y-19453929D02*
X1898214Y-19468214D01*
X1826786Y-19468214D01*
X1798214Y-19453929D01*
X1783928Y-19425357D01*
X1783928Y-19396786D01*
X1798214Y-19368214D01*
X1826786Y-19353929D01*
X1898214Y-19353929D01*
X1926786Y-19339643D01*
X2069643Y-19268214D02*
X2069643Y-19568214D01*
X2069643Y-19282500D02*
X2098214Y-19268214D01*
X2155357Y-19268214D01*
X2183928Y-19282500D01*
X2198214Y-19296786D01*
X2212500Y-19325357D01*
X2212500Y-19411072D01*
X2198214Y-19439643D01*
X2183928Y-19453929D01*
X2155357Y-19468214D01*
X2098214Y-19468214D01*
X2069643Y-19453929D01*
X2341071Y-19439643D02*
X2355357Y-19453929D01*
X2341071Y-19468214D01*
X2326786Y-19453929D01*
X2341071Y-19439643D01*
X2341071Y-19468214D01*
X2341071Y-19282500D02*
X2355357Y-19296786D01*
X2341071Y-19311072D01*
X2326786Y-19296786D01*
X2341071Y-19282500D01*
X2341071Y-19311072D01*
M02*
